  0
SECTION
  2
HEADER
  9
$ACADVER
  1
AC1009
  9
$FILLMODE
 70
0
  9
$EXTMIN
 10
-26.7563
 20
-9.2500
 30
0.0000
  9
$EXTMAX
 10
23.2438
 20
10.7500
 30
0.0000
  0
ENDSEC
  0
SECTION
  2
TABLES
  0
TABLE
  2
LTYPE
 70
1
  0
LTYPE
  2
CONTINUOUS
 70
64
  3
Solid line
 72
65
 73
0
 40
0
  0
ENDTAB
  0
TABLE
  2
LAYER
 70
255
  0
LAYER
  2
1
 70
64
 62
14
  6
CONTINUOUS
  0
LAYER
  2
16
 70
64
 62
174
  6
CONTINUOUS
  0
LAYER
  2
17
 70
64
 62
94
  6
CONTINUOUS
  0
LAYER
  2
18
 70
64
 62
94
  6
CONTINUOUS
  0
LAYER
  2
19
 70
64
 62
54
  6
CONTINUOUS
  0
LAYER
  2
20
 70
64
 62
178
  6
CONTINUOUS
  0
ENDTAB
  0
ENDSEC
  0
SECTION
  2
BLOCKS
  0
BLOCK
  8
0
  2
RECT
 70
64
 10
0.0000
 20
0.0000
 30
0.0000
  3
RECT
  0
SOLID
  8
0
 10
-0.5000
 20
-0.5000
 30
0.0000
 11
0.5000
 21
-0.5000
 31
0.0000
 12
-0.5000
 22
0.5000
 32
0.0000
 13
0.5000
 23
0.5000
 33
0.0000
  0
ENDBLK
  8
0
  0
BLOCK
  8
0
  2
PIE
 70
64
 10
0.0000
 20
0.0000
 30
0.0000
  3
PIE
  0
CIRCLE
  8
0
 10
0.0000
 20
0.0000
 30
0.0000
 40
0.5000
  0
ENDBLK
  8
0
  0
BLOCK
  8
0
  2
OCTAGONP
 70
64
 10
0.0000
 20
0.0000
 30
0.0000
  3
OCTAGONP
  0
POLYLINE
  8
0
 66
1
 10
0.0000
 20
0.0000
 30
0.0000
 40
0.0000
 41
0.0000
 70
1
  0
VERTEX
  8
0
 10
-0.5000
 20
-0.2071
 30
0.0000
  0
VERTEX
  8
0
 10
-0.5000
 20
0.2071
 30
0.0000
  0
VERTEX
  8
0
 10
-0.2071
 20
0.5000
 30
0.0000
  0
VERTEX
  8
0
 10
0.2071
 20
0.5000
 30
0.0000
  0
VERTEX
  8
0
 10
0.5000
 20
0.2071
 30
0.0000
  0
VERTEX
  8
0
 10
0.5000
 20
-0.2071
 30
0.0000
  0
VERTEX
  8
0
 10
0.2071
 20
-0.5000
 30
0.0000
  0
VERTEX
  8
0
 10
-0.2071
 20
-0.5000
 30
0.0000
  0
SEQEND
  8
0
  0
ENDBLK
  8
0
  0
BLOCK
  8
0
  2
SQUAREP
 70
64
 10
0.0000
 20
0.0000
 30
0.0000
  3
SQUAREP
  0
SOLID
  8
0
 10
-0.5000
 20
-0.5000
 30
0.0000
 11
0.5000
 21
-0.5000
 31
0.0000
 12
-0.5000
 22
0.5000
 32
0.0000
 13
0.5000
 23
0.5000
 33
0.0000
  0
ENDBLK
  8
0
  0
BLOCK
  8
0
  2
ROUNDP
 70
64
 10
0.0000
 20
0.0000
 30
0.0000
  3
ROUNDP
  0
CIRCLE
  8
0
 10
0.0000
 20
0.0000
 30
0.0000
 40
0.5000
  0
ENDBLK
  8
0
  0
BLOCK
  8
0
  2
ANNULUSP
 70
64
 10
0.0000
 20
0.0000
 30
0.0000
  3
ANNULUSP
  0
CIRCLE
  8
0
 10
0.0000
 20
0.0000
 30
0.0000
 40
0.5000
  0
ENDBLK
  8
0
  0
BLOCK
  8
0
  2
THERMALP
 70
64
 10
0.0000
 20
0.0000
 30
0.0000
  3
THERMALP
  0
LINE
  8
0
 10
-0.2379
 20
0.4500
 30
0.0000
 11
0.2379
 21
0.4500
 31
0.0000
  0
LINE
  8
0
 10
0.4500
 20
0.2379
 30
0.0000
 11
0.4500
 21
-0.2379
 31
0.0000
  0
LINE
  8
0
 10
0.2379
 20
-0.4500
 30
0.0000
 11
-0.2379
 21
-0.4500
 31
0.0000
  0
LINE
  8
0
 10
-0.4500
 20
-0.2379
 30
0.0000
 11
-0.4500
 21
0.2379
 31
0.0000
  0
ENDBLK
  8
0
  0
BLOCK
  8
0
  2
OCTAGONV
 70
64
 10
0.0000
 20
0.0000
 30
0.0000
  3
OCTAGONV
  0
POLYLINE
  8
0
 66
1
 10
0.0000
 20
0.0000
 30
0.0000
 40
0.0000
 41
0.0000
 70
1
  0
VERTEX
  8
0
 10
-0.5000
 20
-0.2071
 30
0.0000
  0
VERTEX
  8
0
 10
-0.5000
 20
0.2071
 30
0.0000
  0
VERTEX
  8
0
 10
-0.2071
 20
0.5000
 30
0.0000
  0
VERTEX
  8
0
 10
0.2071
 20
0.5000
 30
0.0000
  0
VERTEX
  8
0
 10
0.5000
 20
0.2071
 30
0.0000
  0
VERTEX
  8
0
 10
0.5000
 20
-0.2071
 30
0.0000
  0
VERTEX
  8
0
 10
0.2071
 20
-0.5000
 30
0.0000
  0
VERTEX
  8
0
 10
-0.2071
 20
-0.5000
 30
0.0000
  0
SEQEND
  8
0
  0
ENDBLK
  8
0
  0
BLOCK
  8
0
  2
SQUAREV
 70
64
 10
0.0000
 20
0.0000
 30
0.0000
  3
SQUAREV
  0
SOLID
  8
0
 10
-0.5000
 20
-0.5000
 30
0.0000
 11
0.5000
 21
-0.5000
 31
0.0000
 12
-0.5000
 22
0.5000
 32
0.0000
 13
0.5000
 23
0.5000
 33
0.0000
  0
ENDBLK
  8
0
  0
BLOCK
  8
0
  2
ROUNDV
 70
64
 10
0.0000
 20
0.0000
 30
0.0000
  3
ROUNDV
  0
CIRCLE
  8
0
 10
0.0000
 20
0.0000
 30
0.0000
 40
0.5000
  0
ENDBLK
  8
0
  0
BLOCK
  8
0
  2
ANNULUSV
 70
64
 10
0.0000
 20
0.0000
 30
0.0000
  3
ANNULUSV
  0
CIRCLE
  8
0
 10
0.0000
 20
0.0000
 30
0.0000
 40
0.5000
  0
ENDBLK
  8
0
  0
BLOCK
  8
0
  2
THERMALV
 70
64
 10
0.0000
 20
0.0000
 30
0.0000
  3
THERMALV
  0
LINE
  8
0
 10
-0.2379
 20
0.4500
 30
0.0000
 11
0.2379
 21
0.4500
 31
0.0000
  0
LINE
  8
0
 10
0.4500
 20
0.2379
 30
0.0000
 11
0.4500
 21
-0.2379
 31
0.0000
  0
LINE
  8
0
 10
0.2379
 20
-0.4500
 30
0.0000
 11
-0.2379
 21
-0.4500
 31
0.0000
  0
LINE
  8
0
 10
-0.4500
 20
-0.2379
 30
0.0000
 11
-0.4500
 21
0.2379
 31
0.0000
  0
ENDBLK
  8
0
  0
ENDSEC
  0
SECTION
  2
ENTITIES
  0
LINE
  8
20
 10
-19.7438
 20
5.7688
 30
0.0000
 11
12.7563
 21
5.7688
 31
0.0000
  0
LINE
  8
20
 10
12.7563
 20
5.7688
 30
0.0000
 11
12.7563
 21
-6.9062
 31
0.0000
  0
LINE
  8
20
 10
12.7563
 20
-6.9062
 30
0.0000
 11
-19.7438
 21
-6.9062
 31
0.0000
  0
LINE
  8
20
 10
-19.7438
 20
-6.9062
 30
0.0000
 11
-19.7438
 21
5.7688
 31
0.0000
  0
LINE
  8
1
 10
1.2823
 20
-6.1414
 30
0.0000
 11
1.2823
 21
-6.4846
 31
0.0000
  0
LINE
  8
1
 10
1.2823
 20
-6.4846
 30
0.0000
 11
1.3966
 21
-6.5990
 31
0.0000
  0
LINE
  8
1
 10
1.3966
 20
-6.5990
 30
0.0000
 11
1.7398
 21
-6.5990
 31
0.0000
  0
LINE
  8
1
 10
1.7398
 20
-6.5990
 30
0.0000
 11
1.7398
 21
-6.1414
 31
0.0000
  0
LINE
  8
1
 10
2.0307
 20
-6.5990
 30
0.0000
 11
2.0307
 21
-6.1414
 31
0.0000
  0
LINE
  8
1
 10
2.0307
 20
-6.1414
 30
0.0000
 11
2.3739
 21
-6.1414
 31
0.0000
  0
LINE
  8
1
 10
2.3739
 20
-6.1414
 30
0.0000
 11
2.4883
 21
-6.2558
 31
0.0000
  0
LINE
  8
1
 10
2.4883
 20
-6.2558
 30
0.0000
 11
2.4883
 21
-6.5990
 31
0.0000
  0
LINE
  8
1
 10
2.7791
 20
-6.1414
 30
0.0000
 11
2.7791
 21
-6.4846
 31
0.0000
  0
LINE
  8
1
 10
2.7791
 20
-6.4846
 30
0.0000
 11
2.8935
 21
-6.5990
 31
0.0000
  0
LINE
  8
1
 10
2.8935
 20
-6.5990
 30
0.0000
 11
3.2367
 21
-6.5990
 31
0.0000
  0
LINE
  8
1
 10
3.2367
 20
-6.5990
 30
0.0000
 11
3.2367
 21
-6.1414
 31
0.0000
  0
LINE
  8
1
 10
3.5275
 20
-6.5990
 30
0.0000
 11
3.8707
 21
-6.5990
 31
0.0000
  0
LINE
  8
1
 10
3.8707
 20
-6.5990
 30
0.0000
 11
3.9851
 21
-6.4846
 31
0.0000
  0
LINE
  8
1
 10
3.9851
 20
-6.4846
 30
0.0000
 11
3.8707
 21
-6.3702
 31
0.0000
  0
LINE
  8
1
 10
3.8707
 20
-6.3702
 30
0.0000
 11
3.6419
 21
-6.3702
 31
0.0000
  0
LINE
  8
1
 10
3.6419
 20
-6.3702
 30
0.0000
 11
3.5275
 21
-6.2558
 31
0.0000
  0
LINE
  8
1
 10
3.5275
 20
-6.2558
 30
0.0000
 11
3.6419
 21
-6.1414
 31
0.0000
  0
LINE
  8
1
 10
3.6419
 20
-6.1414
 30
0.0000
 11
3.9851
 21
-6.1414
 31
0.0000
  0
LINE
  8
1
 10
4.2759
 20
-6.1414
 30
0.0000
 11
4.2759
 21
-6.4846
 31
0.0000
  0
LINE
  8
1
 10
4.2759
 20
-6.4846
 30
0.0000
 11
4.3903
 21
-6.5990
 31
0.0000
  0
LINE
  8
1
 10
4.3903
 20
-6.5990
 30
0.0000
 11
4.7335
 21
-6.5990
 31
0.0000
  0
LINE
  8
1
 10
4.7335
 20
-6.5990
 30
0.0000
 11
4.7335
 21
-6.1414
 31
0.0000
  0
LINE
  8
1
 10
5.1387
 20
-6.1414
 30
0.0000
 11
5.3675
 21
-6.1414
 31
0.0000
  0
LINE
  8
1
 10
5.3675
 20
-6.1414
 30
0.0000
 11
5.4819
 21
-6.2558
 31
0.0000
  0
LINE
  8
1
 10
5.4819
 20
-6.2558
 30
0.0000
 11
5.4819
 21
-6.5990
 31
0.0000
  0
LINE
  8
1
 10
5.4819
 20
-6.5990
 30
0.0000
 11
5.1387
 21
-6.5990
 31
0.0000
  0
LINE
  8
1
 10
5.1387
 20
-6.5990
 30
0.0000
 11
5.0243
 21
-6.4846
 31
0.0000
  0
LINE
  8
1
 10
5.0243
 20
-6.4846
 30
0.0000
 11
5.1387
 21
-6.3702
 31
0.0000
  0
LINE
  8
1
 10
5.1387
 20
-6.3702
 30
0.0000
 11
5.4819
 21
-6.3702
 31
0.0000
  0
LINE
  8
1
 10
5.7727
 20
-5.9126
 30
0.0000
 11
5.8871
 21
-5.9126
 31
0.0000
  0
LINE
  8
1
 10
5.8871
 20
-5.9126
 30
0.0000
 11
5.8871
 21
-6.5990
 31
0.0000
  0
LINE
  8
1
 10
5.7727
 20
-6.5990
 30
0.0000
 11
6.0015
 21
-6.5990
 31
0.0000
  0
LINE
  8
1
 10
6.2717
 20
-6.7134
 30
0.0000
 11
6.7293
 21
-6.7134
 31
0.0000
  0
LINE
  8
1
 10
7.1345
 20
-6.0270
 30
0.0000
 11
7.1345
 21
-6.4846
 31
0.0000
  0
LINE
  8
1
 10
7.1345
 20
-6.4846
 30
0.0000
 11
7.2489
 21
-6.5990
 31
0.0000
  0
LINE
  8
1
 10
7.0201
 20
-6.1414
 30
0.0000
 11
7.2489
 21
-6.1414
 31
0.0000
  0
LINE
  8
1
 10
7.5190
 20
-5.9126
 30
0.0000
 11
7.5190
 21
-6.5990
 31
0.0000
  0
LINE
  8
1
 10
7.5190
 20
-6.2558
 30
0.0000
 11
7.6334
 21
-6.1414
 31
0.0000
  0
LINE
  8
1
 10
7.6334
 20
-6.1414
 30
0.0000
 11
7.8622
 21
-6.1414
 31
0.0000
  0
LINE
  8
1
 10
7.8622
 20
-6.1414
 30
0.0000
 11
7.9766
 21
-6.2558
 31
0.0000
  0
LINE
  8
1
 10
7.9766
 20
-6.2558
 30
0.0000
 11
7.9766
 21
-6.5990
 31
0.0000
  0
LINE
  8
1
 10
8.3819
 20
-6.5990
 30
0.0000
 11
8.6107
 21
-6.5990
 31
0.0000
  0
LINE
  8
1
 10
8.6107
 20
-6.5990
 30
0.0000
 11
8.7251
 21
-6.4846
 31
0.0000
  0
LINE
  8
1
 10
8.7251
 20
-6.4846
 30
0.0000
 11
8.7251
 21
-6.2558
 31
0.0000
  0
LINE
  8
1
 10
8.7251
 20
-6.2558
 30
0.0000
 11
8.6107
 21
-6.1414
 31
0.0000
  0
LINE
  8
1
 10
8.6107
 20
-6.1414
 30
0.0000
 11
8.3819
 21
-6.1414
 31
0.0000
  0
LINE
  8
1
 10
8.3819
 20
-6.1414
 30
0.0000
 11
8.2675
 21
-6.2558
 31
0.0000
  0
LINE
  8
1
 10
8.2675
 20
-6.2558
 30
0.0000
 11
8.2675
 21
-6.4846
 31
0.0000
  0
LINE
  8
1
 10
8.2675
 20
-6.4846
 30
0.0000
 11
8.3819
 21
-6.5990
 31
0.0000
  0
LINE
  8
1
 10
9.0159
 20
-6.1414
 30
0.0000
 11
9.0159
 21
-6.4846
 31
0.0000
  0
LINE
  8
1
 10
9.0159
 20
-6.4846
 30
0.0000
 11
9.1303
 21
-6.5990
 31
0.0000
  0
LINE
  8
1
 10
9.1303
 20
-6.5990
 30
0.0000
 11
9.4735
 21
-6.5990
 31
0.0000
  0
LINE
  8
1
 10
9.4735
 20
-6.5990
 30
0.0000
 11
9.4735
 21
-6.1414
 31
0.0000
  0
LINE
  8
1
 10
9.9931
 20
-6.8278
 30
0.0000
 11
10.1075
 21
-6.8278
 31
0.0000
  0
LINE
  8
1
 10
10.1075
 20
-6.8278
 30
0.0000
 11
10.2219
 21
-6.7134
 31
0.0000
  0
LINE
  8
1
 10
10.2219
 20
-6.7134
 30
0.0000
 11
10.2219
 21
-6.1414
 31
0.0000
  0
LINE
  8
1
 10
10.2219
 20
-6.1414
 30
0.0000
 11
9.8787
 21
-6.1414
 31
0.0000
  0
LINE
  8
1
 10
9.8787
 20
-6.1414
 30
0.0000
 11
9.7643
 21
-6.2558
 31
0.0000
  0
LINE
  8
1
 10
9.7643
 20
-6.2558
 30
0.0000
 11
9.7643
 21
-6.4846
 31
0.0000
  0
LINE
  8
1
 10
9.7643
 20
-6.4846
 30
0.0000
 11
9.8787
 21
-6.5990
 31
0.0000
  0
LINE
  8
1
 10
9.8787
 20
-6.5990
 30
0.0000
 11
10.2219
 21
-6.5990
 31
0.0000
  0
LINE
  8
1
 10
10.5127
 20
-5.9126
 30
0.0000
 11
10.5127
 21
-6.5990
 31
0.0000
  0
LINE
  8
1
 10
10.5127
 20
-6.2558
 30
0.0000
 11
10.6271
 21
-6.1414
 31
0.0000
  0
LINE
  8
1
 10
10.6271
 20
-6.1414
 30
0.0000
 11
10.8559
 21
-6.1414
 31
0.0000
  0
LINE
  8
1
 10
10.8559
 20
-6.1414
 30
0.0000
 11
10.9703
 21
-6.2558
 31
0.0000
  0
LINE
  8
1
 10
10.9703
 20
-6.2558
 30
0.0000
 11
10.9703
 21
-6.5990
 31
0.0000
  0
LINE
  8
1
 10
11.3755
 20
-6.0270
 30
0.0000
 11
11.3755
 21
-6.4846
 31
0.0000
  0
LINE
  8
1
 10
11.3755
 20
-6.4846
 30
0.0000
 11
11.4899
 21
-6.5990
 31
0.0000
  0
LINE
  8
1
 10
11.2611
 20
-6.1414
 30
0.0000
 11
11.4899
 21
-6.1414
 31
0.0000
  0
LINE
  8
1
 10
11.7601
 20
-6.5990
 30
0.0000
 11
12.1033
 21
-6.5990
 31
0.0000
  0
LINE
  8
1
 10
12.1033
 20
-6.5990
 30
0.0000
 11
12.2177
 21
-6.4846
 31
0.0000
  0
LINE
  8
1
 10
12.2177
 20
-6.4846
 30
0.0000
 11
12.1033
 21
-6.3702
 31
0.0000
  0
LINE
  8
1
 10
12.1033
 20
-6.3702
 30
0.0000
 11
11.8745
 21
-6.3702
 31
0.0000
  0
LINE
  8
1
 10
11.8745
 20
-6.3702
 30
0.0000
 11
11.7601
 21
-6.2558
 31
0.0000
  0
LINE
  8
1
 10
11.7601
 20
-6.2558
 30
0.0000
 11
11.8745
 21
-6.1414
 31
0.0000
  0
LINE
  8
1
 10
11.8745
 20
-6.1414
 30
0.0000
 11
12.2177
 21
-6.1414
 31
0.0000
  0
LINE
  8
1
 10
10.0273
 20
-5.6240
 30
0.0000
 11
9.5698
 21
-5.6240
 31
0.0000
  0
LINE
  8
1
 10
9.5698
 20
-5.6240
 30
0.0000
 11
10.0273
 21
-5.1664
 31
0.0000
  0
LINE
  8
1
 10
10.0273
 20
-5.1664
 30
0.0000
 11
10.0273
 21
-5.0520
 31
0.0000
  0
LINE
  8
1
 10
10.0273
 20
-5.0520
 30
0.0000
 11
9.9129
 21
-4.9376
 31
0.0000
  0
LINE
  8
1
 10
9.9129
 20
-4.9376
 30
0.0000
 11
9.6841
 21
-4.9376
 31
0.0000
  0
LINE
  8
1
 10
9.6841
 20
-4.9376
 30
0.0000
 11
9.5698
 21
-5.0520
 31
0.0000
  0
LINE
  8
1
 10
10.3182
 20
-5.5096
 30
0.0000
 11
10.3182
 21
-5.0520
 31
0.0000
  0
LINE
  8
1
 10
10.3182
 20
-5.0520
 30
0.0000
 11
10.4326
 21
-4.9376
 31
0.0000
  0
LINE
  8
1
 10
10.4326
 20
-4.9376
 30
0.0000
 11
10.6614
 21
-4.9376
 31
0.0000
  0
LINE
  8
1
 10
10.6614
 20
-4.9376
 30
0.0000
 11
10.7758
 21
-5.0520
 31
0.0000
  0
LINE
  8
1
 10
10.7758
 20
-5.0520
 30
0.0000
 11
10.7758
 21
-5.5096
 31
0.0000
  0
LINE
  8
1
 10
10.7758
 20
-5.5096
 30
0.0000
 11
10.6614
 21
-5.6240
 31
0.0000
  0
LINE
  8
1
 10
10.6614
 20
-5.6240
 30
0.0000
 11
10.4326
 21
-5.6240
 31
0.0000
  0
LINE
  8
1
 10
10.4326
 20
-5.6240
 30
0.0000
 11
10.3182
 21
-5.5096
 31
0.0000
  0
LINE
  8
1
 10
10.3182
 20
-5.5096
 30
0.0000
 11
10.7758
 21
-5.0520
 31
0.0000
  0
LINE
  8
1
 10
11.0666
 20
-5.1664
 30
0.0000
 11
11.2954
 21
-4.9376
 31
0.0000
  0
LINE
  8
1
 10
11.2954
 20
-4.9376
 30
0.0000
 11
11.2954
 21
-5.6240
 31
0.0000
  0
LINE
  8
1
 10
11.0666
 20
-5.6240
 30
0.0000
 11
11.5242
 21
-5.6240
 31
0.0000
  0
LINE
  8
1
 10
12.1582
 20
-5.6240
 30
0.0000
 11
12.1582
 21
-4.9376
 31
0.0000
  0
LINE
  8
1
 10
12.1582
 20
-4.9376
 30
0.0000
 11
11.8150
 21
-5.2808
 31
0.0000
  0
LINE
  8
1
 10
11.8150
 20
-5.2808
 30
0.0000
 11
12.2726
 21
-5.2808
 31
0.0000
  0
INSERT
  8
1
  2
RECT
 10
-7.3938
 20
-5.7250
 30
0.0000
 41
1.3000
 42
1.5000
 43
1.0000
 50
90.0000
  0
INSERT
  8
1
  2
RECT
 10
-7.3938
 20
-4.0250
 30
0.0000
 41
1.3000
 42
1.5000
 43
1.0000
 50
90.0000
  0
INSERT
  8
1
  2
RECT
 10
-5.4438
 20
-4.0250
 30
0.0000
 41
1.3000
 42
1.5000
 43
1.0000
 50
270.0000
  0
INSERT
  8
1
  2
RECT
 10
-5.4438
 20
-5.7250
 30
0.0000
 41
1.3000
 42
1.5000
 43
1.0000
 50
270.0000
  0
INSERT
  8
1
  2
RECT
 10
-6.1313
 20
4.7125
 30
0.0000
 41
1.3000
 42
1.5000
 43
1.0000
 50
0.0000
  0
INSERT
  8
1
  2
RECT
 10
-4.4313
 20
4.7125
 30
0.0000
 41
1.3000
 42
1.5000
 43
1.0000
 50
0.0000
  0
INSERT
  8
1
  2
RECT
 10
-8.2875
 20
4.6688
 30
0.0000
 41
1.3000
 42
1.5000
 43
1.0000
 50
270.0000
  0
INSERT
  8
1
  2
RECT
 10
-8.2875
 20
2.9688
 30
0.0000
 41
1.3000
 42
1.5000
 43
1.0000
 50
270.0000
  0
INSERT
  8
1
  2
RECT
 10
-3.0063
 20
-5.7250
 30
0.0000
 41
1.3000
 42
1.5000
 43
1.0000
 50
90.0000
  0
INSERT
  8
1
  2
RECT
 10
-3.0063
 20
-4.0250
 30
0.0000
 41
1.3000
 42
1.5000
 43
1.0000
 50
90.0000
  0
INSERT
  8
1
  2
RECT
 10
-1.0488
 20
-4.2250
 30
0.0000
 41
1.3000
 42
1.5000
 43
1.0000
 50
270.0000
  0
INSERT
  8
1
  2
RECT
 10
-1.0488
 20
-5.9250
 30
0.0000
 41
1.3000
 42
1.5000
 43
1.0000
 50
270.0000
  0
LINE
  8
1
 10
-18.9091
 20
-0.7197
 30
0.0000
 11
-18.8309
 21
-0.8715
 31
0.0000
  0
LINE
  8
1
 10
-18.8309
 20
-0.8715
 30
0.0000
 11
-19.1382
 21
-1.2485
 31
0.0000
  0
LINE
  8
1
 10
-19.1382
 20
-1.2485
 30
0.0000
 11
-18.8798
 21
-1.5070
 31
0.0000
  0
LINE
  8
1
 10
-18.8798
 20
-1.5070
 30
0.0000
 11
-18.5028
 21
-1.1996
 31
0.0000
  0
LINE
  8
1
 10
-18.5028
 20
-1.1996
 30
0.0000
 11
-18.3509
 21
-1.2778
 31
0.0000
  0
LINE
  8
1
 10
-18.3509
 20
-1.2778
 30
0.0000
 11
-18.1883
 21
-1.3299
 31
0.0000
  0
LINE
  8
1
 10
-18.1883
 20
-1.3299
 30
0.0000
 11
-18.1391
 21
-1.8138
 31
0.0000
  0
LINE
  8
1
 10
-18.1391
 20
-1.8138
 30
0.0000
 11
-17.7735
 21
-1.8138
 31
0.0000
  0
LINE
  8
1
 10
-17.7735
 20
-1.8138
 30
0.0000
 11
-17.7243
 21
-1.3299
 31
0.0000
  0
LINE
  8
1
 10
-17.7243
 20
-1.3299
 30
0.0000
 11
-17.5616
 21
-1.2778
 31
0.0000
  0
LINE
  8
1
 10
-17.5616
 20
-1.2778
 30
0.0000
 11
-17.4098
 21
-1.1996
 31
0.0000
  0
LINE
  8
1
 10
-17.4098
 20
-1.1996
 30
0.0000
 11
-17.0328
 21
-1.5070
 31
0.0000
  0
LINE
  8
1
 10
-17.0328
 20
-1.5070
 30
0.0000
 11
-16.7743
 21
-1.2485
 31
0.0000
  0
LINE
  8
1
 10
-16.7743
 20
-1.2485
 30
0.0000
 11
-17.0816
 21
-0.8715
 31
0.0000
  0
LINE
  8
1
 10
-17.0816
 20
-0.8715
 30
0.0000
 11
-17.0034
 21
-0.7197
 31
0.0000
  0
LINE
  8
1
 10
-17.0034
 20
-0.7197
 30
0.0000
 11
-16.9514
 21
-0.5570
 31
0.0000
  0
LINE
  8
1
 10
-16.9514
 20
-0.5570
 30
0.0000
 11
-16.4674
 21
-0.5078
 31
0.0000
  0
LINE
  8
1
 10
-16.4674
 20
-0.5078
 30
0.0000
 11
-16.4674
 21
-0.1422
 31
0.0000
  0
LINE
  8
1
 10
-16.4674
 20
-0.1422
 30
0.0000
 11
-16.9514
 21
-0.0930
 31
0.0000
  0
LINE
  8
1
 10
-16.9514
 20
-0.0930
 30
0.0000
 11
-17.0034
 21
0.0697
 31
0.0000
  0
LINE
  8
1
 10
-17.0034
 20
0.0697
 30
0.0000
 11
-17.0816
 21
0.2215
 31
0.0000
  0
LINE
  8
1
 10
-17.0816
 20
0.2215
 30
0.0000
 11
-16.7743
 21
0.5985
 31
0.0000
  0
LINE
  8
1
 10
-16.7743
 20
0.5985
 30
0.0000
 11
-17.0328
 21
0.8570
 31
0.0000
  0
LINE
  8
1
 10
-17.0328
 20
0.8570
 30
0.0000
 11
-17.4098
 21
0.5496
 31
0.0000
  0
LINE
  8
1
 10
-17.4098
 20
0.5496
 30
0.0000
 11
-17.5616
 21
0.6278
 31
0.0000
  0
LINE
  8
1
 10
-17.5616
 20
0.6278
 30
0.0000
 11
-17.7243
 21
0.6799
 31
0.0000
  0
LINE
  8
1
 10
-17.7243
 20
0.6799
 30
0.0000
 11
-17.7735
 21
1.1638
 31
0.0000
  0
LINE
  8
1
 10
-17.7735
 20
1.1638
 30
0.0000
 11
-18.1391
 21
1.1638
 31
0.0000
  0
LINE
  8
1
 10
-18.1391
 20
1.1638
 30
0.0000
 11
-18.1883
 21
0.6799
 31
0.0000
  0
LINE
  8
1
 10
-18.1883
 20
0.6799
 30
0.0000
 11
-18.3509
 21
0.6278
 31
0.0000
  0
LINE
  8
1
 10
-18.3509
 20
0.6278
 30
0.0000
 11
-18.5028
 21
0.5496
 31
0.0000
  0
LINE
  8
1
 10
-18.5028
 20
0.5496
 30
0.0000
 11
-18.8798
 21
0.8570
 31
0.0000
  0
LINE
  8
1
 10
-18.8798
 20
0.8570
 30
0.0000
 11
-19.1382
 21
0.5985
 31
0.0000
  0
LINE
  8
1
 10
-19.1382
 20
0.5985
 30
0.0000
 11
-18.8309
 21
0.2215
 31
0.0000
  0
LINE
  8
1
 10
-18.8309
 20
0.2215
 30
0.0000
 11
-18.9091
 21
0.0697
 31
0.0000
  0
LINE
  8
1
 10
-18.9091
 20
0.0697
 30
0.0000
 11
-18.3894
 21
-0.1456
 31
0.0000
  0
LINE
  8
1
 10
-18.3894
 20
-0.1456
 30
0.0000
 11
-18.3355
 21
-0.0494
 31
0.0000
  0
LINE
  8
1
 10
-18.3355
 20
-0.0494
 30
0.0000
 11
-18.2607
 21
0.0315
 31
0.0000
  0
LINE
  8
1
 10
-18.2607
 20
0.0315
 30
0.0000
 11
-18.1691
 21
0.0927
 31
0.0000
  0
LINE
  8
1
 10
-18.1691
 20
0.0927
 30
0.0000
 11
-18.0657
 21
0.1309
 31
0.0000
  0
LINE
  8
1
 10
-18.0657
 20
0.1309
 30
0.0000
 11
-17.9563
 21
0.1438
 31
0.0000
  0
LINE
  8
1
 10
-17.9563
 20
0.1438
 30
0.0000
 11
-17.8449
 21
0.1303
 31
0.0000
  0
LINE
  8
1
 10
-17.8449
 20
0.1303
 30
0.0000
 11
-17.7399
 21
0.0908
 31
0.0000
  0
LINE
  8
1
 10
-17.7399
 20
0.0908
 30
0.0000
 11
-17.6472
 21
0.0274
 31
0.0000
  0
LINE
  8
1
 10
-17.6472
 20
0.0274
 30
0.0000
 11
-17.5724
 21
-0.0561
 31
0.0000
  0
LINE
  8
1
 10
-17.5724
 20
-0.0561
 30
0.0000
 11
-17.5195
 21
-0.1551
 31
0.0000
  0
LINE
  8
1
 10
-17.5195
 20
-0.1551
 30
0.0000
 11
-17.4916
 21
-0.2638
 31
0.0000
  0
LINE
  8
1
 10
-17.4916
 20
-0.2638
 30
0.0000
 11
-17.4904
 21
-0.3760
 31
0.0000
  0
LINE
  8
1
 10
-17.4904
 20
-0.3760
 30
0.0000
 11
-17.5159
 21
-0.4852
 31
0.0000
  0
LINE
  8
1
 10
-17.5159
 20
-0.4852
 30
0.0000
 11
-17.5666
 21
-0.5853
 31
0.0000
  0
LINE
  8
1
 10
-17.5666
 20
-0.5853
 30
0.0000
 11
-17.6397
 21
-0.6705
 31
0.0000
  0
LINE
  8
1
 10
-17.6397
 20
-0.6705
 30
0.0000
 11
-17.7309
 21
-0.7359
 31
0.0000
  0
LINE
  8
1
 10
-17.7309
 20
-0.7359
 30
0.0000
 11
-17.8350
 21
-0.7777
 31
0.0000
  0
LINE
  8
1
 10
-17.8350
 20
-0.7777
 30
0.0000
 11
-17.9461
 21
-0.7935
 31
0.0000
  0
LINE
  8
1
 10
-17.9461
 20
-0.7935
 30
0.0000
 11
-18.0577
 21
-0.7826
 31
0.0000
  0
LINE
  8
1
 10
-18.0577
 20
-0.7826
 30
0.0000
 11
-18.1636
 21
-0.7453
 31
0.0000
  0
LINE
  8
1
 10
-18.1636
 20
-0.7453
 30
0.0000
 11
-18.2576
 21
-0.6840
 31
0.0000
  0
LINE
  8
1
 10
-18.2576
 20
-0.6840
 30
0.0000
 11
-18.3343
 21
-0.6022
 31
0.0000
  0
LINE
  8
1
 10
-18.3343
 20
-0.6022
 30
0.0000
 11
-18.3894
 21
-0.5044
 31
0.0000
  0
LINE
  8
1
 10
-18.3894
 20
-0.5044
 30
0.0000
 11
-18.9091
 21
-0.7197
 31
0.0000
  0
LINE
  8
1
 10
-19.0063
 20
0.7305
 30
0.0000
 11
-19.0063
 21
0.4366
 31
0.0000
  0
LINE
  8
1
 10
-19.0063
 20
-1.0866
 30
0.0000
 11
-19.0063
 21
-1.3805
 31
0.0000
  0
LINE
  8
1
 10
-18.8562
 20
0.8378
 30
0.0000
 11
-18.8562
 21
0.2527
 31
0.0000
  0
LINE
  8
1
 10
-18.8562
 20
0.1722
 30
0.0000
 11
-18.8562
 21
0.0478
 31
0.0000
  0
LINE
  8
1
 10
-18.8562
 20
-0.6978
 30
0.0000
 11
-18.8562
 21
-0.8222
 31
0.0000
  0
LINE
  8
1
 10
-18.8562
 20
-0.9027
 30
0.0000
 11
-18.8562
 21
-1.4878
 31
0.0000
  0
LINE
  8
1
 10
-18.7063
 20
0.7155
 30
0.0000
 11
-18.7063
 21
-0.0143
 31
0.0000
  0
LINE
  8
1
 10
-18.7063
 20
-0.6357
 30
0.0000
 11
-18.7063
 21
-1.3655
 31
0.0000
  0
LINE
  8
1
 10
-18.5563
 20
0.5932
 30
0.0000
 11
-18.5563
 21
-0.0765
 31
0.0000
  0
LINE
  8
1
 10
-18.5563
 20
-0.5735
 30
0.0000
 11
-18.5563
 21
-1.2432
 31
0.0000
  0
LINE
  8
1
 10
-18.4062
 20
0.5993
 30
0.0000
 11
-18.4062
 21
-0.1386
 31
0.0000
  0
LINE
  8
1
 10
-18.4062
 20
-0.5114
 30
0.0000
 11
-18.4062
 21
-1.2493
 31
0.0000
  0
LINE
  8
1
 10
-18.2563
 20
0.6581
 30
0.0000
 11
-18.2563
 21
0.0345
 31
0.0000
  0
LINE
  8
1
 10
-18.2563
 20
-0.6849
 30
0.0000
 11
-18.2563
 21
-1.3081
 31
0.0000
  0
LINE
  8
1
 10
-18.1062
 20
1.1638
 30
0.0000
 11
-18.1062
 21
0.1159
 31
0.0000
  0
LINE
  8
1
 10
-18.1062
 20
-0.7655
 30
0.0000
 11
-18.1062
 21
-1.8138
 31
0.0000
  0
LINE
  8
1
 10
-17.9563
 20
1.1638
 30
0.0000
 11
-17.9563
 21
0.1438
 31
0.0000
  0
LINE
  8
1
 10
-17.9563
 20
-0.7925
 30
0.0000
 11
-17.9563
 21
-1.8138
 31
0.0000
  0
LINE
  8
1
 10
-17.8063
 20
1.1638
 30
0.0000
 11
-17.8063
 21
0.1158
 31
0.0000
  0
LINE
  8
1
 10
-17.8063
 20
-0.7661
 30
0.0000
 11
-17.8063
 21
-1.8138
 31
0.0000
  0
LINE
  8
1
 10
-17.6562
 20
0.6581
 30
0.0000
 11
-17.6562
 21
0.0336
 31
0.0000
  0
LINE
  8
1
 10
-17.6562
 20
-0.6824
 30
0.0000
 11
-17.6562
 21
-1.3081
 31
0.0000
  0
LINE
  8
1
 10
-17.5063
 20
0.5993
 30
0.0000
 11
-17.5063
 21
-0.2067
 31
0.0000
  0
LINE
  8
1
 10
-17.5063
 20
-0.4439
 30
0.0000
 11
-17.5063
 21
-1.2493
 31
0.0000
  0
LINE
  8
1
 10
-17.3562
 20
0.5932
 30
0.0000
 11
-17.3562
 21
-1.2432
 31
0.0000
  0
LINE
  8
1
 10
-17.2063
 20
0.7155
 30
0.0000
 11
-17.2063
 21
-1.3655
 31
0.0000
  0
LINE
  8
1
 10
-17.0563
 20
0.8378
 30
0.0000
 11
-17.0563
 21
0.2526
 31
0.0000
  0
LINE
  8
1
 10
-17.0563
 20
0.1722
 30
0.0000
 11
-17.0563
 21
-0.8222
 31
0.0000
  0
LINE
  8
1
 10
-17.0563
 20
-0.9027
 30
0.0000
 11
-17.0563
 21
-1.4878
 31
0.0000
  0
LINE
  8
1
 10
-16.9062
 20
0.7305
 30
0.0000
 11
-16.9062
 21
0.4366
 31
0.0000
  0
LINE
  8
1
 10
-16.9062
 20
-0.0976
 30
0.0000
 11
-16.9062
 21
-0.5524
 31
0.0000
  0
LINE
  8
1
 10
-16.9062
 20
-1.0866
 30
0.0000
 11
-16.9062
 21
-1.3805
 31
0.0000
  0
LINE
  8
1
 10
-16.7563
 20
-0.1128
 30
0.0000
 11
-16.7563
 21
-0.5372
 31
0.0000
  0
LINE
  8
1
 10
-16.6062
 20
-0.1281
 30
0.0000
 11
-16.6062
 21
-0.5219
 31
0.0000
  0
INSERT
  8
1
  2
RECT
 10
-10.2375
 20
4.8500
 30
0.0000
 41
1.3000
 42
1.5000
 43
1.0000
 50
270.0000
  0
INSERT
  8
1
  2
RECT
 10
-10.2375
 20
2.9500
 30
0.0000
 41
1.3000
 42
1.5000
 43
1.0000
 50
270.0000
  0
INSERT
  8
1
  2
RECT
 10
1.7788
 20
-4.5500
 30
0.0000
 41
2.2000
 42
0.3500
 43
1.0000
 50
0.0000
  0
INSERT
  8
1
  2
RECT
 10
1.7788
 20
-3.9000
 30
0.0000
 41
2.2000
 42
0.3500
 43
1.0000
 50
0.0000
  0
INSERT
  8
1
  2
RECT
 10
1.7788
 20
-3.2500
 30
0.0000
 41
2.2000
 42
0.3500
 43
1.0000
 50
0.0000
  0
INSERT
  8
1
  2
RECT
 10
1.7788
 20
-2.6000
 30
0.0000
 41
2.2000
 42
0.3500
 43
1.0000
 50
0.0000
  0
INSERT
  8
1
  2
RECT
 10
1.7788
 20
-1.9500
 30
0.0000
 41
2.2000
 42
0.3500
 43
1.0000
 50
0.0000
  0
INSERT
  8
1
  2
RECT
 10
1.7788
 20
-1.3000
 30
0.0000
 41
2.2000
 42
0.3500
 43
1.0000
 50
0.0000
  0
INSERT
  8
1
  2
RECT
 10
1.7788
 20
-0.6500
 30
0.0000
 41
2.2000
 42
0.3500
 43
1.0000
 50
0.0000
  0
INSERT
  8
1
  2
RECT
 10
1.7788
 20
0.0000
 30
0.0000
 41
2.2000
 42
0.3500
 43
1.0000
 50
0.0000
  0
INSERT
  8
1
  2
RECT
 10
1.7788
 20
0.6500
 30
0.0000
 41
2.2000
 42
0.3500
 43
1.0000
 50
0.0000
  0
INSERT
  8
1
  2
RECT
 10
1.7788
 20
1.3000
 30
0.0000
 41
2.2000
 42
0.3500
 43
1.0000
 50
0.0000
  0
INSERT
  8
1
  2
RECT
 10
1.7788
 20
1.9500
 30
0.0000
 41
2.2000
 42
0.3500
 43
1.0000
 50
0.0000
  0
INSERT
  8
1
  2
RECT
 10
1.7788
 20
2.6000
 30
0.0000
 41
2.2000
 42
0.3500
 43
1.0000
 50
0.0000
  0
INSERT
  8
1
  2
RECT
 10
1.7788
 20
3.2500
 30
0.0000
 41
2.2000
 42
0.3500
 43
1.0000
 50
0.0000
  0
INSERT
  8
1
  2
RECT
 10
1.7788
 20
3.9000
 30
0.0000
 41
2.2000
 42
0.3500
 43
1.0000
 50
0.0000
  0
INSERT
  8
1
  2
RECT
 10
1.7788
 20
4.5500
 30
0.0000
 41
2.2000
 42
0.3500
 43
1.0000
 50
0.0000
  0
INSERT
  8
17
  2
OCTAGONP
 10
-15.2150
 20
-4.1350
 30
0.0000
 41
1.7780
 42
1.7780
 43
1.0000
 50
0.0000
  0
INSERT
  8
17
  2
OCTAGONP
 10
-15.2150
 20
-4.1350
 30
0.0000
 41
1.7780
 42
1.7780
 43
1.0000
 50
0.0000
  0
INSERT
  8
17
  2
OCTAGONP
 10
-17.7550
 20
-4.1350
 30
0.0000
 41
1.7780
 42
1.7780
 43
1.0000
 50
0.0000
  0
INSERT
  8
17
  2
OCTAGONP
 10
-17.7550
 20
-4.1350
 30
0.0000
 41
1.7780
 42
1.7780
 43
1.0000
 50
0.0000
  0
INSERT
  8
17
  2
OCTAGONP
 10
-17.7550
 20
3.4850
 30
0.0000
 41
1.7780
 42
1.7780
 43
1.0000
 50
0.0000
  0
INSERT
  8
17
  2
OCTAGONP
 10
-17.7550
 20
3.4850
 30
0.0000
 41
1.7780
 42
1.7780
 43
1.0000
 50
0.0000
  0
INSERT
  8
17
  2
OCTAGONP
 10
-12.6750
 20
-4.1350
 30
0.0000
 41
1.7780
 42
1.7780
 43
1.0000
 50
0.0000
  0
INSERT
  8
17
  2
OCTAGONP
 10
-12.6750
 20
-4.1350
 30
0.0000
 41
1.7780
 42
1.7780
 43
1.0000
 50
0.0000
  0
INSERT
  8
17
  2
OCTAGONP
 10
-15.2150
 20
3.4850
 30
0.0000
 41
1.7780
 42
1.7780
 43
1.0000
 50
0.0000
  0
INSERT
  8
17
  2
OCTAGONP
 10
-15.2150
 20
3.4850
 30
0.0000
 41
1.7780
 42
1.7780
 43
1.0000
 50
0.0000
  0
INSERT
  8
17
  2
OCTAGONP
 10
-12.6750
 20
3.4850
 30
0.0000
 41
1.7780
 42
1.7780
 43
1.0000
 50
0.0000
  0
INSERT
  8
17
  2
OCTAGONP
 10
-12.6750
 20
3.4850
 30
0.0000
 41
1.7780
 42
1.7780
 43
1.0000
 50
0.0000
  0
INSERT
  8
17
  2
OCTAGONP
 10
-10.1350
 20
-4.1350
 30
0.0000
 41
1.7780
 42
1.7780
 43
1.0000
 50
0.0000
  0
INSERT
  8
17
  2
OCTAGONP
 10
-10.1350
 20
-4.1350
 30
0.0000
 41
1.7780
 42
1.7780
 43
1.0000
 50
0.0000
  0
LINE
  8
1
 10
1.7788
 20
-1.9500
 30
0.0000
 11
0.6500
 21
-1.9500
 31
0.0000
  0
LINE
  8
1
 10
0.6500
 20
-1.9500
 30
0.0000
 11
0.4875
 21
-1.7875
 31
0.0000
  0
LINE
  8
1
 10
0.7313
 20
-0.6500
 30
0.0000
 11
1.7788
 21
-0.6500
 31
0.0000
  0
LINE
  8
1
 10
-5.4438
 20
-4.0250
 30
0.0000
 11
-5.3625
 21
-3.2500
 31
0.0000
  0
LINE
  8
1
 10
-5.3625
 20
-3.2500
 30
0.0000
 11
-3.9000
 21
-1.7875
 31
0.0000
  0
LINE
  8
1
 10
-3.9000
 20
-1.7875
 30
0.0000
 11
0.4875
 21
-1.7875
 31
0.0000
  0
LINE
  8
1
 10
-7.3938
 20
-4.0250
 30
0.0000
 11
-5.4438
 21
-4.0250
 31
0.0000
  0
LINE
  8
1
 10
1.7788
 20
-0.6500
 30
0.0000
 11
3.1688
 21
-0.6500
 31
0.0000
  0
LINE
  8
1
 10
3.1688
 20
-0.6500
 30
0.0000
 11
3.4125
 21
-0.8938
 31
0.0000
  0
LINE
  8
1
 10
3.4125
 20
-0.8938
 30
0.0000
 11
3.4125
 21
-1.7063
 31
0.0000
  0
LINE
  8
1
 10
3.4125
 20
-1.7063
 30
0.0000
 11
3.1688
 21
-1.9500
 31
0.0000
  0
LINE
  8
1
 10
3.1688
 20
-1.9500
 30
0.0000
 11
1.7788
 21
-1.9500
 31
0.0000
  0
LINE
  8
1
 10
-10.1350
 20
-4.1350
 30
0.0000
 11
-10.0250
 21
-4.0250
 31
0.0000
  0
LINE
  8
1
 10
-10.0250
 20
-4.0250
 30
0.0000
 11
-7.3938
 21
-4.0250
 31
0.0000
  0
LINE
  8
1
 10
-8.7634
 20
-4.7031
 30
0.0000
 11
-8.7634
 21
-4.6854
 31
0.0000
  0
LINE
  8
1
 10
-8.7634
 20
-4.6854
 30
0.0000
 11
-8.6263
 21
-4.6854
 31
0.0000
  0
LINE
  8
1
 10
-8.6263
 20
-4.6854
 30
0.0000
 11
-8.6263
 21
-4.8749
 31
0.0000
  0
LINE
  8
1
 10
-8.6263
 20
-4.8749
 30
0.0000
 11
-8.3436
 21
-5.1576
 31
0.0000
  0
LINE
  8
1
 10
-8.3436
 20
-5.1576
 30
0.0000
 11
-6.4439
 21
-5.1576
 31
0.0000
  0
LINE
  8
1
 10
-6.4439
 20
-5.1576
 30
0.0000
 11
-6.4188
 21
-5.1325
 31
0.0000
  0
LINE
  8
1
 10
-6.4188
 20
-5.1325
 30
0.0000
 11
-6.3936
 21
-5.1576
 31
0.0000
  0
LINE
  8
1
 10
-6.3936
 20
-5.1576
 30
0.0000
 11
-4.8854
 21
-5.1576
 31
0.0000
  0
LINE
  8
1
 10
-4.8854
 20
-5.1576
 30
0.0000
 11
-4.8854
 21
-5.8189
 31
0.0000
  0
LINE
  8
1
 10
-4.8854
 20
-5.8189
 30
0.0000
 11
-4.7849
 21
-6.0616
 31
0.0000
  0
LINE
  8
1
 10
-4.7849
 20
-6.0616
 30
0.0000
 11
-4.5991
 21
-6.2474
 31
0.0000
  0
LINE
  8
1
 10
-4.5991
 20
-6.2474
 30
0.0000
 11
-4.3564
 21
-6.3479
 31
0.0000
  0
LINE
  8
1
 10
-4.3564
 20
-6.3479
 30
0.0000
 11
-4.2388
 21
-6.3479
 31
0.0000
  0
LINE
  8
1
 10
-4.2388
 20
-6.3479
 30
0.0000
 11
-4.2388
 21
-6.4237
 31
0.0000
  0
LINE
  8
1
 10
-4.2388
 20
-6.4237
 30
0.0000
 11
-19.2612
 21
-6.4237
 31
0.0000
  0
LINE
  8
1
 10
-19.2612
 20
-6.4237
 30
0.0000
 11
-19.2612
 21
-1.9216
 31
0.0000
  0
LINE
  8
1
 10
-19.2612
 20
-1.9216
 30
0.0000
 11
-19.1659
 21
-2.0384
 31
0.0000
  0
LINE
  8
1
 10
-19.1659
 20
-2.0384
 30
0.0000
 11
-19.1337
 21
-2.0417
 31
0.0000
  0
LINE
  8
1
 10
-19.1337
 20
-2.0417
 30
0.0000
 11
-19.1107
 21
-2.0646
 31
0.0000
  0
LINE
  8
1
 10
-19.1107
 20
-2.0646
 30
0.0000
 11
-18.9080
 21
-2.0646
 31
0.0000
  0
LINE
  8
1
 10
-18.9080
 20
-2.0646
 30
0.0000
 11
-18.7064
 21
-2.0851
 31
0.0000
  0
LINE
  8
1
 10
-18.7064
 20
-2.0851
 30
0.0000
 11
-18.6812
 21
-2.0646
 31
0.0000
  0
LINE
  8
1
 10
-18.6812
 20
-2.0646
 30
0.0000
 11
-18.6768
 21
-2.0646
 31
0.0000
  0
LINE
  8
1
 10
-18.6768
 20
-2.0646
 30
0.0000
 11
-18.6737
 21
-2.0677
 31
0.0000
  0
LINE
  8
1
 10
-18.6737
 20
-2.0677
 30
0.0000
 11
-18.6704
 21
-2.1000
 31
0.0000
  0
LINE
  8
1
 10
-18.6704
 20
-2.1000
 30
0.0000
 11
-18.5133
 21
-2.2281
 31
0.0000
  0
LINE
  8
1
 10
-18.5133
 20
-2.2281
 30
0.0000
 11
-18.3700
 21
-2.3714
 31
0.0000
  0
LINE
  8
1
 10
-18.3700
 20
-2.3714
 30
0.0000
 11
-18.3376
 21
-2.3714
 31
0.0000
  0
LINE
  8
1
 10
-18.3376
 20
-2.3714
 30
0.0000
 11
-18.3124
 21
-2.3919
 31
0.0000
  0
LINE
  8
1
 10
-18.3124
 20
-2.3919
 30
0.0000
 11
-18.1108
 21
-2.3714
 31
0.0000
  0
LINE
  8
1
 10
-18.1108
 20
-2.3714
 30
0.0000
 11
-17.8017
 21
-2.3714
 31
0.0000
  0
LINE
  8
1
 10
-17.8017
 20
-2.3714
 30
0.0000
 11
-17.6001
 21
-2.3919
 31
0.0000
  0
LINE
  8
1
 10
-17.6001
 20
-2.3919
 30
0.0000
 11
-17.5749
 21
-2.3714
 31
0.0000
  0
LINE
  8
1
 10
-17.5749
 20
-2.3714
 30
0.0000
 11
-17.5425
 21
-2.3714
 31
0.0000
  0
LINE
  8
1
 10
-17.5425
 20
-2.3714
 30
0.0000
 11
-17.3992
 21
-2.2281
 31
0.0000
  0
LINE
  8
1
 10
-17.3992
 20
-2.2281
 30
0.0000
 11
-17.2421
 21
-2.1000
 31
0.0000
  0
LINE
  8
1
 10
-17.2421
 20
-2.1000
 30
0.0000
 11
-17.2388
 21
-2.0677
 31
0.0000
  0
LINE
  8
1
 10
-17.2388
 20
-2.0677
 30
0.0000
 11
-17.2357
 21
-2.0646
 31
0.0000
  0
LINE
  8
1
 10
-17.2357
 20
-2.0646
 30
0.0000
 11
-17.2313
 21
-2.0646
 31
0.0000
  0
LINE
  8
1
 10
-17.2313
 20
-2.0646
 30
0.0000
 11
-17.2061
 21
-2.0851
 31
0.0000
  0
LINE
  8
1
 10
-17.2061
 20
-2.0851
 30
0.0000
 11
-17.0045
 21
-2.0646
 31
0.0000
  0
LINE
  8
1
 10
-17.0045
 20
-2.0646
 30
0.0000
 11
-16.8018
 21
-2.0646
 31
0.0000
  0
LINE
  8
1
 10
-16.8018
 20
-2.0646
 30
0.0000
 11
-16.7788
 21
-2.0417
 31
0.0000
  0
LINE
  8
1
 10
-16.7788
 20
-2.0417
 30
0.0000
 11
-16.7466
 21
-2.0384
 31
0.0000
  0
LINE
  8
1
 10
-16.7466
 20
-2.0384
 30
0.0000
 11
-16.6185
 21
-1.8813
 31
0.0000
  0
LINE
  8
1
 10
-16.6185
 20
-1.8813
 30
0.0000
 11
-16.4000
 21
-1.6628
 31
0.0000
  0
LINE
  8
1
 10
-16.4000
 20
-1.6628
 30
0.0000
 11
-16.2429
 21
-1.5347
 31
0.0000
  0
LINE
  8
1
 10
-16.2429
 20
-1.5347
 30
0.0000
 11
-16.2396
 21
-1.5024
 31
0.0000
  0
LINE
  8
1
 10
-16.2396
 20
-1.5024
 30
0.0000
 11
-16.2167
 21
-1.4795
 31
0.0000
  0
LINE
  8
1
 10
-16.2167
 20
-1.4795
 30
0.0000
 11
-16.2167
 21
-1.2768
 31
0.0000
  0
LINE
  8
1
 10
-16.2167
 20
-1.2768
 30
0.0000
 11
-16.1961
 21
-1.0751
 31
0.0000
  0
LINE
  8
1
 10
-16.1961
 20
-1.0751
 30
0.0000
 11
-16.2167
 21
-1.0500
 31
0.0000
  0
LINE
  8
1
 10
-16.2167
 20
-1.0500
 30
0.0000
 11
-16.2167
 21
-1.0456
 31
0.0000
  0
LINE
  8
1
 10
-16.2167
 20
-1.0456
 30
0.0000
 11
-16.2135
 21
-1.0425
 31
0.0000
  0
LINE
  8
1
 10
-16.2135
 20
-1.0425
 30
0.0000
 11
-16.1813
 21
-1.0392
 31
0.0000
  0
LINE
  8
1
 10
-16.1813
 20
-1.0392
 30
0.0000
 11
-16.0532
 21
-0.8821
 31
0.0000
  0
LINE
  8
1
 10
-16.0532
 20
-0.8821
 30
0.0000
 11
-15.9099
 21
-0.7388
 31
0.0000
  0
LINE
  8
1
 10
-15.9099
 20
-0.7388
 30
0.0000
 11
-15.9099
 21
-0.7063
 31
0.0000
  0
LINE
  8
1
 10
-15.9099
 20
-0.7063
 30
0.0000
 11
-15.8893
 21
-0.6812
 31
0.0000
  0
LINE
  8
1
 10
-15.8893
 20
-0.6812
 30
0.0000
 11
-15.9099
 21
-0.4795
 31
0.0000
  0
LINE
  8
1
 10
-15.9099
 20
-0.4795
 30
0.0000
 11
-15.9099
 21
-0.1705
 31
0.0000
  0
LINE
  8
1
 10
-15.9099
 20
-0.1705
 30
0.0000
 11
-15.8893
 21
0.0312
 31
0.0000
  0
LINE
  8
1
 10
-15.8893
 20
0.0312
 30
0.0000
 11
-15.9099
 21
0.0563
 31
0.0000
  0
LINE
  8
1
 10
-15.9099
 20
0.0563
 30
0.0000
 11
-15.9099
 21
0.0888
 31
0.0000
  0
LINE
  8
1
 10
-15.9099
 20
0.0888
 30
0.0000
 11
-16.0532
 21
0.2321
 31
0.0000
  0
LINE
  8
1
 10
-16.0532
 20
0.2321
 30
0.0000
 11
-16.1813
 21
0.3892
 31
0.0000
  0
LINE
  8
1
 10
-16.1813
 20
0.3892
 30
0.0000
 11
-16.2135
 21
0.3925
 31
0.0000
  0
LINE
  8
1
 10
-16.2135
 20
0.3925
 30
0.0000
 11
-16.2167
 21
0.3956
 31
0.0000
  0
LINE
  8
1
 10
-16.2167
 20
0.3956
 30
0.0000
 11
-16.2167
 21
0.4000
 31
0.0000
  0
LINE
  8
1
 10
-16.2167
 20
0.4000
 30
0.0000
 11
-16.1961
 21
0.4251
 31
0.0000
  0
LINE
  8
1
 10
-16.1961
 20
0.4251
 30
0.0000
 11
-16.2167
 21
0.6268
 31
0.0000
  0
LINE
  8
1
 10
-16.2167
 20
0.6268
 30
0.0000
 11
-16.2167
 21
0.8295
 31
0.0000
  0
LINE
  8
1
 10
-16.2167
 20
0.8295
 30
0.0000
 11
-16.2396
 21
0.8524
 31
0.0000
  0
LINE
  8
1
 10
-16.2396
 20
0.8524
 30
0.0000
 11
-16.2429
 21
0.8847
 31
0.0000
  0
LINE
  8
1
 10
-16.2429
 20
0.8847
 30
0.0000
 11
-16.4000
 21
1.0128
 31
0.0000
  0
LINE
  8
1
 10
-16.4000
 20
1.0128
 30
0.0000
 11
-16.6185
 21
1.2313
 31
0.0000
  0
LINE
  8
1
 10
-16.6185
 20
1.2313
 30
0.0000
 11
-16.7466
 21
1.3884
 31
0.0000
  0
LINE
  8
1
 10
-16.7466
 20
1.3884
 30
0.0000
 11
-16.7788
 21
1.3917
 31
0.0000
  0
LINE
  8
1
 10
-16.7788
 20
1.3917
 30
0.0000
 11
-16.8018
 21
1.4146
 31
0.0000
  0
LINE
  8
1
 10
-16.8018
 20
1.4146
 30
0.0000
 11
-17.0045
 21
1.4146
 31
0.0000
  0
LINE
  8
1
 10
-17.0045
 20
1.4146
 30
0.0000
 11
-17.2061
 21
1.4351
 31
0.0000
  0
LINE
  8
1
 10
-17.2061
 20
1.4351
 30
0.0000
 11
-17.2313
 21
1.4146
 31
0.0000
  0
LINE
  8
1
 10
-17.2313
 20
1.4146
 30
0.0000
 11
-17.2357
 21
1.4146
 31
0.0000
  0
LINE
  8
1
 10
-17.2357
 20
1.4146
 30
0.0000
 11
-17.2388
 21
1.4177
 31
0.0000
  0
LINE
  8
1
 10
-17.2388
 20
1.4177
 30
0.0000
 11
-17.2421
 21
1.4500
 31
0.0000
  0
LINE
  8
1
 10
-17.2421
 20
1.4500
 30
0.0000
 11
-17.3992
 21
1.5781
 31
0.0000
  0
LINE
  8
1
 10
-17.3992
 20
1.5781
 30
0.0000
 11
-17.5425
 21
1.7214
 31
0.0000
  0
LINE
  8
1
 10
-17.5425
 20
1.7214
 30
0.0000
 11
-17.5749
 21
1.7214
 31
0.0000
  0
LINE
  8
1
 10
-17.5749
 20
1.7214
 30
0.0000
 11
-17.6001
 21
1.7419
 31
0.0000
  0
LINE
  8
1
 10
-17.6001
 20
1.7419
 30
0.0000
 11
-17.8017
 21
1.7214
 31
0.0000
  0
LINE
  8
1
 10
-17.8017
 20
1.7214
 30
0.0000
 11
-18.1108
 21
1.7214
 31
0.0000
  0
LINE
  8
1
 10
-18.1108
 20
1.7214
 30
0.0000
 11
-18.3124
 21
1.7419
 31
0.0000
  0
LINE
  8
1
 10
-18.3124
 20
1.7419
 30
0.0000
 11
-18.3376
 21
1.7214
 31
0.0000
  0
LINE
  8
1
 10
-18.3376
 20
1.7214
 30
0.0000
 11
-18.3700
 21
1.7214
 31
0.0000
  0
LINE
  8
1
 10
-18.3700
 20
1.7214
 30
0.0000
 11
-18.5133
 21
1.5781
 31
0.0000
  0
LINE
  8
1
 10
-18.5133
 20
1.5781
 30
0.0000
 11
-18.6704
 21
1.4500
 31
0.0000
  0
LINE
  8
1
 10
-18.6704
 20
1.4500
 30
0.0000
 11
-18.6737
 21
1.4177
 31
0.0000
  0
LINE
  8
1
 10
-18.6737
 20
1.4177
 30
0.0000
 11
-18.6768
 21
1.4146
 31
0.0000
  0
LINE
  8
1
 10
-18.6768
 20
1.4146
 30
0.0000
 11
-18.6812
 21
1.4146
 31
0.0000
  0
LINE
  8
1
 10
-18.6812
 20
1.4146
 30
0.0000
 11
-18.7064
 21
1.4351
 31
0.0000
  0
LINE
  8
1
 10
-18.7064
 20
1.4351
 30
0.0000
 11
-18.9080
 21
1.4146
 31
0.0000
  0
LINE
  8
1
 10
-18.9080
 20
1.4146
 30
0.0000
 11
-19.1107
 21
1.4146
 31
0.0000
  0
LINE
  8
1
 10
-19.1107
 20
1.4146
 30
0.0000
 11
-19.1337
 21
1.3917
 31
0.0000
  0
LINE
  8
1
 10
-19.1337
 20
1.3917
 30
0.0000
 11
-19.1659
 21
1.3884
 31
0.0000
  0
LINE
  8
1
 10
-19.1659
 20
1.3884
 30
0.0000
 11
-19.2612
 21
1.2716
 31
0.0000
  0
LINE
  8
1
 10
-19.2612
 20
1.2716
 30
0.0000
 11
-19.2612
 21
5.2862
 31
0.0000
  0
LINE
  8
1
 10
-19.2612
 20
5.2862
 30
0.0000
 11
-5.5638
 21
5.2862
 31
0.0000
  0
LINE
  8
1
 10
-5.5638
 20
5.2862
 30
0.0000
 11
-5.5638
 21
4.0729
 31
0.0000
  0
LINE
  8
1
 10
-5.5638
 20
4.0729
 30
0.0000
 11
-6.9564
 21
4.0729
 31
0.0000
  0
LINE
  8
1
 10
-6.9564
 20
4.0729
 30
0.0000
 11
-7.1991
 21
3.9724
 31
0.0000
  0
LINE
  8
1
 10
-7.1991
 20
3.9724
 30
0.0000
 11
-7.2038
 21
3.9676
 31
0.0000
  0
LINE
  8
1
 10
-7.2038
 20
3.9676
 30
0.0000
 11
-7.3376
 21
4.1013
 31
0.0000
  0
LINE
  8
1
 10
-7.3376
 20
4.1013
 30
0.0000
 11
-9.2374
 21
4.1013
 31
0.0000
  0
LINE
  8
1
 10
-9.2374
 20
4.1013
 30
0.0000
 11
-9.2719
 21
4.0669
 31
0.0000
  0
LINE
  8
1
 10
-9.2719
 20
4.0669
 30
0.0000
 11
-9.2876
 21
4.0826
 31
0.0000
  0
LINE
  8
1
 10
-9.2876
 20
4.0826
 30
0.0000
 11
-11.1874
 21
4.0826
 31
0.0000
  0
LINE
  8
1
 10
-11.1874
 20
4.0826
 30
0.0000
 11
-11.3034
 21
3.9666
 31
0.0000
  0
LINE
  8
1
 10
-11.3034
 20
3.9666
 30
0.0000
 11
-11.3034
 21
4.0531
 31
0.0000
  0
LINE
  8
1
 10
-11.3034
 20
4.0531
 30
0.0000
 11
-12.1069
 21
4.8566
 31
0.0000
  0
LINE
  8
1
 10
-12.1069
 20
4.8566
 30
0.0000
 11
-13.2431
 21
4.8566
 31
0.0000
  0
LINE
  8
1
 10
-13.2431
 20
4.8566
 30
0.0000
 11
-13.9450
 21
4.1547
 31
0.0000
  0
LINE
  8
1
 10
-13.9450
 20
4.1547
 30
0.0000
 11
-14.6469
 21
4.8566
 31
0.0000
  0
LINE
  8
1
 10
-14.6469
 20
4.8566
 30
0.0000
 11
-15.7831
 21
4.8566
 31
0.0000
  0
LINE
  8
1
 10
-15.7831
 20
4.8566
 30
0.0000
 11
-16.4850
 21
4.1547
 31
0.0000
  0
LINE
  8
1
 10
-16.4850
 20
4.1547
 30
0.0000
 11
-17.1869
 21
4.8566
 31
0.0000
  0
LINE
  8
1
 10
-17.1869
 20
4.8566
 30
0.0000
 11
-18.3231
 21
4.8566
 31
0.0000
  0
LINE
  8
1
 10
-18.3231
 20
4.8566
 30
0.0000
 11
-19.1266
 21
4.0531
 31
0.0000
  0
LINE
  8
1
 10
-19.1266
 20
4.0531
 30
0.0000
 11
-19.1266
 21
2.9169
 31
0.0000
  0
LINE
  8
1
 10
-19.1266
 20
2.9169
 30
0.0000
 11
-18.3231
 21
2.1134
 31
0.0000
  0
LINE
  8
1
 10
-18.3231
 20
2.1134
 30
0.0000
 11
-17.3316
 21
2.1134
 31
0.0000
  0
LINE
  8
1
 10
-17.3316
 20
2.1134
 30
0.0000
 11
-14.7019
 21
-0.5584
 31
0.0000
  0
LINE
  8
1
 10
-14.7019
 20
-0.5584
 30
0.0000
 11
-14.9701
 21
-0.5584
 31
0.0000
  0
LINE
  8
1
 10
-14.9701
 20
-0.5584
 30
0.0000
 11
-15.2128
 21
-0.6589
 31
0.0000
  0
LINE
  8
1
 10
-15.2128
 20
-0.6589
 30
0.0000
 11
-17.3173
 21
-2.7634
 31
0.0000
  0
LINE
  8
1
 10
-17.3173
 20
-2.7634
 30
0.0000
 11
-18.3231
 21
-2.7634
 31
0.0000
  0
LINE
  8
1
 10
-18.3231
 20
-2.7634
 30
0.0000
 11
-19.1266
 21
-3.5669
 31
0.0000
  0
LINE
  8
1
 10
-19.1266
 20
-3.5669
 30
0.0000
 11
-19.1266
 21
-4.7031
 31
0.0000
  0
LINE
  8
1
 10
-19.1266
 20
-4.7031
 30
0.0000
 11
-18.3231
 21
-5.5066
 31
0.0000
  0
LINE
  8
1
 10
-18.3231
 20
-5.5066
 30
0.0000
 11
-17.1869
 21
-5.5066
 31
0.0000
  0
LINE
  8
1
 10
-17.1869
 20
-5.5066
 30
0.0000
 11
-16.4850
 21
-4.8047
 31
0.0000
  0
LINE
  8
1
 10
-16.4850
 20
-4.8047
 30
0.0000
 11
-15.7831
 21
-5.5066
 31
0.0000
  0
LINE
  8
1
 10
-15.7831
 20
-5.5066
 30
0.0000
 11
-14.6469
 21
-5.5066
 31
0.0000
  0
LINE
  8
1
 10
-14.6469
 20
-5.5066
 30
0.0000
 11
-13.8434
 21
-4.7031
 31
0.0000
  0
LINE
  8
1
 10
-13.8434
 20
-4.7031
 30
0.0000
 11
-13.8434
 21
-3.5669
 31
0.0000
  0
LINE
  8
1
 10
-13.8434
 20
-3.5669
 30
0.0000
 11
-14.4069
 21
-3.0034
 31
0.0000
  0
LINE
  8
1
 10
-14.4069
 20
-3.0034
 30
0.0000
 11
-14.0140
 21
-2.6104
 31
0.0000
  0
LINE
  8
1
 10
-14.0140
 20
-2.6104
 30
0.0000
 11
-6.1341
 21
-2.6104
 31
0.0000
  0
LINE
  8
1
 10
-6.1341
 20
-2.6104
 30
0.0000
 11
-6.1249
 21
-2.6139
 31
0.0000
  0
LINE
  8
1
 10
-6.1249
 20
-2.6139
 30
0.0000
 11
-6.0031
 21
-2.6104
 31
0.0000
  0
LINE
  8
1
 10
-6.0031
 20
-2.6104
 30
0.0000
 11
-5.8811
 21
-2.6104
 31
0.0000
  0
LINE
  8
1
 10
-5.8811
 20
-2.6104
 30
0.0000
 11
-5.8721
 21
-2.6067
 31
0.0000
  0
LINE
  8
1
 10
-5.8721
 20
-2.6067
 30
0.0000
 11
-5.8623
 21
-2.6064
 31
0.0000
  0
LINE
  8
1
 10
-5.8623
 20
-2.6064
 30
0.0000
 11
-5.7511
 21
-2.5565
 31
0.0000
  0
LINE
  8
1
 10
-5.7511
 20
-2.5565
 30
0.0000
 11
-5.6384
 21
-2.5099
 31
0.0000
  0
LINE
  8
1
 10
-5.6384
 20
-2.5099
 30
0.0000
 11
-5.6315
 21
-2.5029
 31
0.0000
  0
LINE
  8
1
 10
-5.6315
 20
-2.5029
 30
0.0000
 11
-5.6226
 21
-2.4989
 31
0.0000
  0
LINE
  8
1
 10
-5.6226
 20
-2.4989
 30
0.0000
 11
-5.5388
 21
-2.4103
 31
0.0000
  0
LINE
  8
1
 10
-5.5388
 20
-2.4103
 30
0.0000
 11
-5.4526
 21
-2.3241
 31
0.0000
  0
LINE
  8
1
 10
-5.4526
 20
-2.3241
 30
0.0000
 11
-5.4489
 21
-2.3151
 31
0.0000
  0
LINE
  8
1
 10
-5.4489
 20
-2.3151
 30
0.0000
 11
-4.3466
 21
-1.1479
 31
0.0000
  0
LINE
  8
1
 10
-4.3466
 20
-1.1479
 30
0.0000
 11
-4.0816
 21
-1.1479
 31
0.0000
  0
LINE
  8
1
 10
-4.0816
 20
-1.1479
 30
0.0000
 11
-4.2741
 21
-1.2276
 31
0.0000
  0
LINE
  8
1
 10
-4.2741
 20
-1.2276
 30
0.0000
 11
-4.4599
 21
-1.4134
 31
0.0000
  0
LINE
  8
1
 10
-4.4599
 20
-1.4134
 30
0.0000
 11
-4.4599
 21
-1.4134
 31
0.0000
  0
LINE
  8
1
 10
-4.4599
 20
-1.4134
 30
0.0000
 11
-5.8051
 21
-2.7586
 31
0.0000
  0
LINE
  8
1
 10
-5.8051
 20
-2.7586
 30
0.0000
 11
-5.8803
 21
-2.8196
 31
0.0000
  0
LINE
  8
1
 10
-5.8803
 20
-2.8196
 30
0.0000
 11
-5.8972
 21
-2.8508
 31
0.0000
  0
LINE
  8
1
 10
-5.8972
 20
-2.8508
 30
0.0000
 11
-5.9224
 21
-2.8759
 31
0.0000
  0
LINE
  8
1
 10
-5.9224
 20
-2.8759
 30
0.0000
 11
-5.9292
 21
-2.8924
 31
0.0000
  0
LINE
  8
1
 10
-5.9292
 20
-2.8924
 30
0.0000
 11
-6.3936
 21
-2.8924
 31
0.0000
  0
LINE
  8
1
 10
-6.3936
 20
-2.8924
 30
0.0000
 11
-6.4188
 21
-2.9175
 31
0.0000
  0
LINE
  8
1
 10
-6.4188
 20
-2.9175
 30
0.0000
 11
-6.4439
 21
-2.8924
 31
0.0000
  0
LINE
  8
1
 10
-6.4439
 20
-2.8924
 30
0.0000
 11
-8.3436
 21
-2.8924
 31
0.0000
  0
LINE
  8
1
 10
-8.3436
 20
-2.8924
 30
0.0000
 11
-8.6263
 21
-3.1751
 31
0.0000
  0
LINE
  8
1
 10
-8.6263
 20
-3.1751
 30
0.0000
 11
-8.6263
 21
-3.3646
 31
0.0000
  0
LINE
  8
1
 10
-8.6263
 20
-3.3646
 30
0.0000
 11
-8.9657
 21
-3.3646
 31
0.0000
  0
LINE
  8
1
 10
-8.9657
 20
-3.3646
 30
0.0000
 11
-9.5669
 21
-2.7634
 31
0.0000
  0
LINE
  8
1
 10
-9.5669
 20
-2.7634
 30
0.0000
 11
-10.7031
 21
-2.7634
 31
0.0000
  0
LINE
  8
1
 10
-10.7031
 20
-2.7634
 30
0.0000
 11
-11.5066
 21
-3.5669
 31
0.0000
  0
LINE
  8
1
 10
-11.5066
 20
-3.5669
 30
0.0000
 11
-11.5066
 21
-4.7031
 31
0.0000
  0
LINE
  8
1
 10
-11.5066
 20
-4.7031
 30
0.0000
 11
-10.7031
 21
-5.5066
 31
0.0000
  0
LINE
  8
1
 10
-10.7031
 20
-5.5066
 30
0.0000
 11
-9.5669
 21
-5.5066
 31
0.0000
  0
LINE
  8
1
 10
-9.5669
 20
-5.5066
 30
0.0000
 11
-8.7634
 21
-4.7031
 31
0.0000
  0
LINE
  8
1
 10
-19.2612
 20
-6.4008
 30
0.0000
 11
-4.2388
 21
-6.4008
 31
0.0000
  0
LINE
  8
1
 10
-19.2612
 20
-6.0452
 30
0.0000
 11
-4.7916
 21
-6.0452
 31
0.0000
  0
LINE
  8
1
 10
-19.2612
 20
-5.6896
 30
0.0000
 11
-4.8854
 21
-5.6896
 31
0.0000
  0
LINE
  8
1
 10
-19.2612
 20
-5.3340
 30
0.0000
 11
-18.4957
 21
-5.3340
 31
0.0000
  0
LINE
  8
1
 10
-17.0143
 20
-5.3340
 30
0.0000
 11
-15.9557
 21
-5.3340
 31
0.0000
  0
LINE
  8
1
 10
-14.4743
 20
-5.3340
 30
0.0000
 11
-10.8757
 21
-5.3340
 31
0.0000
  0
LINE
  8
1
 10
-9.3943
 20
-5.3340
 30
0.0000
 11
-4.8854
 21
-5.3340
 31
0.0000
  0
LINE
  8
1
 10
-19.2612
 20
-4.9784
 30
0.0000
 11
-18.8513
 21
-4.9784
 31
0.0000
  0
LINE
  8
1
 10
-16.6587
 20
-4.9784
 30
0.0000
 11
-16.3113
 21
-4.9784
 31
0.0000
  0
LINE
  8
1
 10
-14.1187
 20
-4.9784
 30
0.0000
 11
-11.2313
 21
-4.9784
 31
0.0000
  0
LINE
  8
1
 10
-9.0387
 20
-4.9784
 30
0.0000
 11
-8.5228
 21
-4.9784
 31
0.0000
  0
LINE
  8
1
 10
-19.2612
 20
-4.6228
 30
0.0000
 11
-19.1266
 21
-4.6228
 31
0.0000
  0
LINE
  8
1
 10
-13.8434
 20
-4.6228
 30
0.0000
 11
-11.5066
 21
-4.6228
 31
0.0000
  0
LINE
  8
1
 10
-19.2612
 20
-4.2672
 30
0.0000
 11
-19.1266
 21
-4.2672
 31
0.0000
  0
LINE
  8
1
 10
-13.8434
 20
-4.2672
 30
0.0000
 11
-11.5066
 21
-4.2672
 31
0.0000
  0
LINE
  8
1
 10
-19.2612
 20
-3.9116
 30
0.0000
 11
-19.1266
 21
-3.9116
 31
0.0000
  0
LINE
  8
1
 10
-13.8434
 20
-3.9116
 30
0.0000
 11
-11.5066
 21
-3.9116
 31
0.0000
  0
LINE
  8
1
 10
-19.2612
 20
-3.5560
 30
0.0000
 11
-19.1157
 21
-3.5560
 31
0.0000
  0
LINE
  8
1
 10
-13.8543
 20
-3.5560
 30
0.0000
 11
-11.4957
 21
-3.5560
 31
0.0000
  0
LINE
  8
1
 10
-19.2612
 20
-3.2004
 30
0.0000
 11
-18.7601
 21
-3.2004
 31
0.0000
  0
LINE
  8
1
 10
-14.2099
 20
-3.2004
 30
0.0000
 11
-11.1401
 21
-3.2004
 31
0.0000
  0
LINE
  8
1
 10
-9.1299
 20
-3.2004
 30
0.0000
 11
-8.6263
 21
-3.2004
 31
0.0000
  0
LINE
  8
1
 10
-19.2612
 20
-2.8448
 30
0.0000
 11
-18.4045
 21
-2.8448
 31
0.0000
  0
LINE
  8
1
 10
-14.2484
 20
-2.8448
 30
0.0000
 11
-10.7845
 21
-2.8448
 31
0.0000
  0
LINE
  8
1
 10
-9.4855
 20
-2.8448
 30
0.0000
 11
-5.8940
 21
-2.8448
 31
0.0000
  0
LINE
  8
1
 10
-19.2612
 20
-2.4892
 30
0.0000
 11
-17.0431
 21
-2.4892
 31
0.0000
  0
LINE
  8
1
 10
-5.6134
 20
-2.4892
 30
0.0000
 11
-5.5356
 21
-2.4892
 31
0.0000
  0
LINE
  8
1
 10
-19.2612
 20
-2.1336
 30
0.0000
 11
-18.6292
 21
-2.1336
 31
0.0000
  0
LINE
  8
1
 10
-17.2833
 20
-2.1336
 30
0.0000
 11
-16.6875
 21
-2.1336
 31
0.0000
  0
LINE
  8
1
 10
-5.2775
 20
-2.1336
 30
0.0000
 11
-5.1800
 21
-2.1336
 31
0.0000
  0
LINE
  8
1
 10
-16.5152
 20
-1.7780
 30
0.0000
 11
-16.3319
 21
-1.7780
 31
0.0000
  0
LINE
  8
1
 10
-4.9417
 20
-1.7780
 30
0.0000
 11
-4.8244
 21
-1.7780
 31
0.0000
  0
LINE
  8
1
 10
-16.2167
 20
-1.4224
 30
0.0000
 11
-15.9763
 21
-1.4224
 31
0.0000
  0
LINE
  8
1
 10
-4.6058
 20
-1.4224
 30
0.0000
 11
-4.4688
 21
-1.4224
 31
0.0000
  0
LINE
  8
1
 10
-16.2029
 20
-1.0668
 30
0.0000
 11
-15.6207
 21
-1.0668
 31
0.0000
  0
LINE
  8
1
 10
-15.9099
 20
-0.7112
 30
0.0000
 11
-15.2651
 21
-0.7112
 31
0.0000
  0
LINE
  8
1
 10
-15.9099
 20
-0.3556
 30
0.0000
 11
-14.9015
 21
-0.3556
 31
0.0000
  0
LINE
  8
1
 10
-15.8925
 20
0.0000
 30
0.0000
 11
-15.2515
 21
0.0000
 31
0.0000
  0
LINE
  8
1
 10
-16.1539
 20
0.3556
 30
0.0000
 11
-15.6015
 21
0.3556
 31
0.0000
  0
LINE
  8
1
 10
-16.2167
 20
0.7112
 30
0.0000
 11
-15.9515
 21
0.7112
 31
0.0000
  0
LINE
  8
1
 10
-16.4540
 20
1.0668
 30
0.0000
 11
-16.3015
 21
1.0668
 31
0.0000
  0
LINE
  8
1
 10
-19.2612
 20
1.4224
 30
0.0000
 11
-18.8313
 21
1.4224
 31
0.0000
  0
LINE
  8
1
 10
-18.6908
 20
1.4224
 30
0.0000
 11
-18.6732
 21
1.4224
 31
0.0000
  0
LINE
  8
1
 10
-17.2393
 20
1.4224
 30
0.0000
 11
-17.2217
 21
1.4224
 31
0.0000
  0
LINE
  8
1
 10
-17.0812
 20
1.4224
 30
0.0000
 11
-16.6515
 21
1.4224
 31
0.0000
  0
LINE
  8
1
 10
-19.2612
 20
1.7780
 30
0.0000
 11
-17.0015
 21
1.7780
 31
0.0000
  0
LINE
  8
1
 10
-19.2612
 20
2.1336
 30
0.0000
 11
-18.3433
 21
2.1336
 31
0.0000
  0
LINE
  8
1
 10
-19.2612
 20
2.4892
 30
0.0000
 11
-18.6989
 21
2.4892
 31
0.0000
  0
LINE
  8
1
 10
-19.2612
 20
2.8448
 30
0.0000
 11
-19.0545
 21
2.8448
 31
0.0000
  0
LINE
  8
1
 10
-19.2612
 20
3.2004
 30
0.0000
 11
-19.1266
 21
3.2004
 31
0.0000
  0
LINE
  8
1
 10
-19.2612
 20
3.5560
 30
0.0000
 11
-19.1266
 21
3.5560
 31
0.0000
  0
LINE
  8
1
 10
-19.2612
 20
3.9116
 30
0.0000
 11
-19.1266
 21
3.9116
 31
0.0000
  0
LINE
  8
1
 10
-19.2612
 20
4.2672
 30
0.0000
 11
-18.9125
 21
4.2672
 31
0.0000
  0
LINE
  8
1
 10
-16.5975
 20
4.2672
 30
0.0000
 11
-16.3725
 21
4.2672
 31
0.0000
  0
LINE
  8
1
 10
-14.0575
 20
4.2672
 30
0.0000
 11
-13.8325
 21
4.2672
 31
0.0000
  0
LINE
  8
1
 10
-11.5175
 20
4.2672
 30
0.0000
 11
-5.5638
 21
4.2672
 31
0.0000
  0
LINE
  8
1
 10
-19.2612
 20
4.6228
 30
0.0000
 11
-18.5569
 21
4.6228
 31
0.0000
  0
LINE
  8
1
 10
-16.9531
 20
4.6228
 30
0.0000
 11
-16.0169
 21
4.6228
 31
0.0000
  0
LINE
  8
1
 10
-14.4131
 20
4.6228
 30
0.0000
 11
-13.4769
 21
4.6228
 31
0.0000
  0
LINE
  8
1
 10
-11.8731
 20
4.6228
 30
0.0000
 11
-5.5638
 21
4.6228
 31
0.0000
  0
LINE
  8
1
 10
-19.2612
 20
4.9784
 30
0.0000
 11
-5.5638
 21
4.9784
 31
0.0000
  0
LINE
  8
1
 10
1.7788
 20
-1.3000
 30
0.0000
 11
0.1625
 21
-1.3000
 31
0.0000
  0
LINE
  8
1
 10
0.1625
 20
-1.3000
 30
0.0000
 11
0.0000
 21
-1.1375
 31
0.0000
  0
LINE
  8
1
 10
0.0000
 20
-1.1375
 30
0.0000
 11
-4.2250
 21
-1.1375
 31
0.0000
  0
LINE
  8
1
 10
-4.2250
 20
-1.1375
 30
0.0000
 11
-5.6875
 21
-2.6000
 31
0.0000
  0
LINE
  8
1
 10
-5.6875
 20
-2.6000
 30
0.0000
 11
-11.1400
 21
-2.6000
 31
0.0000
  0
LINE
  8
1
 10
-11.1400
 20
-2.6000
 30
0.0000
 11
-12.6750
 21
-4.1350
 31
0.0000
  0
LINE
  8
1
 10
-3.0063
 20
-5.7250
 30
0.0000
 11
-3.0063
 21
-5.6875
 31
0.0000
  0
LINE
  8
1
 10
-3.0063
 20
-5.6875
 30
0.0000
 11
-4.2250
 21
-5.6875
 31
0.0000
  0
LINE
  8
1
 10
-4.2250
 20
-5.6875
 30
0.0000
 11
-4.2250
 21
-3.0875
 31
0.0000
  0
LINE
  8
1
 10
-4.2250
 20
-3.0875
 30
0.0000
 11
-3.5750
 21
-2.4375
 31
0.0000
  0
LINE
  8
1
 10
-3.5750
 20
-2.4375
 30
0.0000
 11
0.1625
 21
-2.4375
 31
0.0000
  0
LINE
  8
1
 10
0.1625
 20
-2.4375
 30
0.0000
 11
0.3250
 21
-2.6000
 31
0.0000
  0
LINE
  8
1
 10
0.3250
 20
-2.6000
 30
0.0000
 11
1.7788
 21
-2.6000
 31
0.0000
  0
LINE
  8
1
 10
-3.0063
 20
-4.0250
 30
0.0000
 11
-2.9250
 21
-3.9000
 31
0.0000
  0
LINE
  8
1
 10
-2.9250
 20
-3.9000
 30
0.0000
 11
-2.1125
 21
-3.0875
 31
0.0000
  0
LINE
  8
1
 10
-2.1125
 20
-3.0875
 30
0.0000
 11
0.0000
 21
-3.0875
 31
0.0000
  0
LINE
  8
1
 10
0.0000
 20
-3.0875
 30
0.0000
 11
0.1625
 21
-3.2500
 31
0.0000
  0
LINE
  8
1
 10
0.1625
 20
-3.2500
 30
0.0000
 11
1.7788
 21
-3.2500
 31
0.0000
  0
LINE
  8
1
 10
1.7788
 20
-3.9000
 30
0.0000
 11
-0.1625
 21
-3.9000
 31
0.0000
  0
LINE
  8
1
 10
-0.1625
 20
-3.9000
 30
0.0000
 11
-0.3250
 21
-4.0625
 31
0.0000
  0
LINE
  8
1
 10
-0.3250
 20
-4.0625
 30
0.0000
 11
-1.0488
 21
-4.2250
 31
0.0000
  0
LINE
  8
1
 10
1.7788
 20
-4.5500
 30
0.0000
 11
0.8913
 21
-4.5438
 31
0.0000
  0
LINE
  8
1
 10
0.8913
 20
-4.5438
 30
0.0000
 11
0.8913
 21
-4.5525
 31
0.0000
  0
LINE
  8
1
 10
0.8913
 20
-4.5525
 30
0.0000
 11
0.2438
 21
-5.2000
 31
0.0000
  0
LINE
  8
1
 10
0.2438
 20
-5.2000
 30
0.0000
 11
0.2438
 21
-5.6063
 31
0.0000
  0
LINE
  8
1
 10
0.2438
 20
-5.6063
 30
0.0000
 11
-0.0813
 21
-5.9313
 31
0.0000
  0
LINE
  8
1
 10
-0.0813
 20
-5.9313
 30
0.0000
 11
-1.0563
 21
-5.9313
 31
0.0000
  0
LINE
  8
1
 10
-1.3000
 20
-5.9313
 30
0.0000
 11
-1.0563
 21
-5.9313
 31
0.0000
  0
LINE
  8
1
 10
-1.0563
 20
-5.9313
 30
0.0000
 11
-1.0488
 21
-5.9250
 31
0.0000
  0
LINE
  8
1
 10
1.7788
 20
3.2500
 30
0.0000
 11
-1.3000
 21
3.2500
 31
0.0000
  0
LINE
  8
1
 10
-1.3000
 20
3.2500
 30
0.0000
 11
-1.7875
 21
2.7625
 31
0.0000
  0
LINE
  8
1
 10
-1.7875
 20
2.7625
 30
0.0000
 11
-6.2563
 21
2.7625
 31
0.0000
  0
LINE
  8
1
 10
-6.2563
 20
2.7625
 30
0.0000
 11
-7.3125
 21
1.7875
 31
0.0000
  0
LINE
  8
1
 10
-7.3125
 20
1.7875
 30
0.0000
 11
-9.5875
 21
1.7875
 31
0.0000
  0
LINE
  8
1
 10
-9.5875
 20
1.7875
 30
0.0000
 11
-10.4000
 21
2.6000
 31
0.0000
  0
LINE
  8
1
 10
-10.4000
 20
2.6000
 30
0.0000
 11
-10.2375
 21
2.9500
 31
0.0000
  0
LINE
  8
1
 10
-15.2150
 20
-4.1350
 30
0.0000
 11
-15.1125
 21
-4.0625
 31
0.0000
  0
LINE
  8
1
 10
-15.1125
 20
-4.0625
 30
0.0000
 11
-15.1125
 21
-2.7750
 31
0.0000
  0
LINE
  8
1
 10
-15.1125
 20
-2.7750
 30
0.0000
 11
-14.2875
 21
-1.9500
 31
0.0000
  0
LINE
  8
1
 10
-14.2875
 20
-1.9500
 30
0.0000
 11
-6.0125
 21
-1.9500
 31
0.0000
  0
LINE
  8
1
 10
-6.0125
 20
-1.9500
 30
0.0000
 11
-4.6313
 21
-0.4875
 31
0.0000
  0
LINE
  8
1
 10
-4.6313
 20
-0.4875
 30
0.0000
 11
-0.1625
 21
-0.4875
 31
0.0000
  0
LINE
  8
1
 10
-0.1625
 20
-0.4875
 30
0.0000
 11
0.3250
 21
0.0000
 31
0.0000
  0
LINE
  8
1
 10
0.3250
 20
0.0000
 30
0.0000
 11
1.7788
 21
0.0000
 31
0.0000
  0
LINE
  8
1
 10
-4.4313
 20
4.7125
 30
0.0000
 11
-4.2687
 21
4.5500
 31
0.0000
  0
LINE
  8
1
 10
-4.2687
 20
4.5500
 30
0.0000
 11
1.7788
 21
4.5500
 31
0.0000
  0
LINE
  8
1
 10
-8.2875
 20
2.9688
 30
0.0000
 11
-8.2875
 21
2.9250
 31
0.0000
  0
LINE
  8
1
 10
-8.2875
 20
2.9250
 30
0.0000
 11
-8.2500
 21
2.8875
 31
0.0000
  0
LINE
  8
1
 10
-8.2500
 20
2.8875
 30
0.0000
 11
-7.3500
 21
2.8875
 31
0.0000
  0
LINE
  8
1
 10
-7.3500
 20
2.8875
 30
0.0000
 11
-6.8250
 21
3.4125
 31
0.0000
  0
LINE
  8
1
 10
-6.8250
 20
3.4125
 30
0.0000
 11
-2.1938
 21
3.4125
 31
0.0000
  0
LINE
  8
1
 10
-2.1938
 20
3.4125
 30
0.0000
 11
-1.7063
 21
3.9000
 31
0.0000
  0
LINE
  8
1
 10
-1.7063
 20
3.9000
 30
0.0000
 11
1.7788
 21
3.9000
 31
0.0000
  0
LINE
  8
1
 10
-17.7550
 20
-4.1350
 30
0.0000
 11
-14.8388
 21
-1.2188
 31
0.0000
  0
LINE
  8
1
 10
-14.8388
 20
-1.2188
 30
0.0000
 11
-6.3375
 21
-1.2188
 31
0.0000
  0
LINE
  8
1
 10
-6.3375
 20
-1.2188
 30
0.0000
 11
-4.9562
 21
0.1625
 31
0.0000
  0
LINE
  8
1
 10
-4.9562
 20
0.1625
 30
0.0000
 11
-0.4875
 21
0.1625
 31
0.0000
  0
LINE
  8
1
 10
-0.4875
 20
0.1625
 30
0.0000
 11
0.0000
 21
0.6500
 31
0.0000
  0
LINE
  8
1
 10
0.0000
 20
0.6500
 30
0.0000
 11
1.7788
 21
0.6500
 31
0.0000
  0
LINE
  8
1
 10
-17.7550
 20
3.4850
 30
0.0000
 11
-14.0050
 21
-0.3250
 31
0.0000
  0
LINE
  8
1
 10
-14.0050
 20
-0.3250
 30
0.0000
 11
-6.4188
 21
-0.3250
 31
0.0000
  0
LINE
  8
1
 10
-6.4188
 20
-0.3250
 30
0.0000
 11
-5.2812
 21
0.8125
 31
0.0000
  0
LINE
  8
1
 10
-5.2812
 20
0.8125
 30
0.0000
 11
-0.8125
 21
0.8125
 31
0.0000
  0
LINE
  8
1
 10
-0.8125
 20
0.8125
 30
0.0000
 11
-0.3250
 21
1.3000
 31
0.0000
  0
LINE
  8
1
 10
-0.3250
 20
1.3000
 30
0.0000
 11
1.7788
 21
1.3000
 31
0.0000
  0
LINE
  8
1
 10
-15.2150
 20
3.4850
 30
0.0000
 11
-12.2175
 21
0.4875
 31
0.0000
  0
LINE
  8
1
 10
-12.2175
 20
0.4875
 30
0.0000
 11
-6.5813
 21
0.4875
 31
0.0000
  0
LINE
  8
1
 10
-6.5813
 20
0.4875
 30
0.0000
 11
-5.6063
 21
1.4625
 31
0.0000
  0
LINE
  8
1
 10
-5.6063
 20
1.4625
 30
0.0000
 11
-1.1375
 21
1.4625
 31
0.0000
  0
LINE
  8
1
 10
-1.1375
 20
1.4625
 30
0.0000
 11
-0.6500
 21
1.9500
 31
0.0000
  0
LINE
  8
1
 10
-0.6500
 20
1.9500
 30
0.0000
 11
1.7788
 21
1.9500
 31
0.0000
  0
LINE
  8
1
 10
1.7788
 20
2.6000
 30
0.0000
 11
-0.9750
 21
2.6000
 31
0.0000
  0
LINE
  8
1
 10
-0.9750
 20
2.6000
 30
0.0000
 11
-1.4625
 21
2.1125
 31
0.0000
  0
LINE
  8
1
 10
-1.4625
 20
2.1125
 30
0.0000
 11
-5.9313
 21
2.1125
 31
0.0000
  0
LINE
  8
1
 10
-5.9313
 20
2.1125
 30
0.0000
 11
-6.9062
 21
1.1375
 31
0.0000
  0
LINE
  8
1
 10
-6.9062
 20
1.1375
 30
0.0000
 11
-11.0500
 21
1.1375
 31
0.0000
  0
LINE
  8
1
 10
-11.0500
 20
1.1375
 30
0.0000
 11
-12.6538
 21
2.7412
 31
0.0000
  0
LINE
  8
1
 10
-12.6538
 20
2.7412
 30
0.0000
 11
-12.6750
 21
3.4850
 31
0.0000
  0
LINE
  8
1
 10
1.3782
 20
-5.3600
 30
0.0000
 11
1.9347
 21
-5.3639
 31
0.0000
  0
LINE
  8
1
 10
1.9347
 20
-5.3639
 30
0.0000
 11
1.9444
 21
-5.3600
 31
0.0000
  0
LINE
  8
1
 10
1.9444
 20
-5.3600
 30
0.0000
 11
3.0051
 21
-5.3600
 31
0.0000
  0
LINE
  8
1
 10
3.0051
 20
-5.3600
 30
0.0000
 11
3.2384
 21
-5.2633
 31
0.0000
  0
LINE
  8
1
 10
3.2384
 20
-5.2633
 30
0.0000
 11
3.4171
 21
-5.0847
 31
0.0000
  0
LINE
  8
1
 10
3.4171
 20
-5.0847
 30
0.0000
 11
3.5137
 21
-4.8513
 31
0.0000
  0
LINE
  8
1
 10
3.5137
 20
-4.8513
 30
0.0000
 11
3.5137
 21
-4.2487
 31
0.0000
  0
LINE
  8
1
 10
3.5137
 20
-4.2487
 30
0.0000
 11
3.5039
 21
-4.2250
 31
0.0000
  0
LINE
  8
1
 10
3.5039
 20
-4.2250
 30
0.0000
 11
3.5137
 21
-4.2013
 31
0.0000
  0
LINE
  8
1
 10
3.5137
 20
-4.2013
 30
0.0000
 11
3.5137
 21
-3.5987
 31
0.0000
  0
LINE
  8
1
 10
3.5137
 20
-3.5987
 30
0.0000
 11
3.5039
 21
-3.5750
 31
0.0000
  0
LINE
  8
1
 10
3.5039
 20
-3.5750
 30
0.0000
 11
3.5137
 21
-3.5513
 31
0.0000
  0
LINE
  8
1
 10
3.5137
 20
-3.5513
 30
0.0000
 11
3.5137
 21
-2.9487
 31
0.0000
  0
LINE
  8
1
 10
3.5137
 20
-2.9487
 30
0.0000
 11
3.5039
 21
-2.9250
 31
0.0000
  0
LINE
  8
1
 10
3.5039
 20
-2.9250
 30
0.0000
 11
3.5137
 21
-2.9013
 31
0.0000
  0
LINE
  8
1
 10
3.5137
 20
-2.9013
 30
0.0000
 11
3.5137
 21
-2.6869
 31
0.0000
  0
LINE
  8
1
 10
3.5137
 20
-2.6869
 30
0.0000
 11
3.6292
 21
-2.6391
 31
0.0000
  0
LINE
  8
1
 10
3.6292
 20
-2.6391
 30
0.0000
 11
3.8578
 21
-2.4104
 31
0.0000
  0
LINE
  8
1
 10
3.8578
 20
-2.4104
 30
0.0000
 11
4.1016
 21
-2.1667
 31
0.0000
  0
LINE
  8
1
 10
4.1016
 20
-2.1667
 30
0.0000
 11
4.2253
 21
-1.8679
 31
0.0000
  0
LINE
  8
1
 10
4.2253
 20
-1.8679
 30
0.0000
 11
4.2253
 21
-0.7321
 31
0.0000
  0
LINE
  8
1
 10
4.2253
 20
-0.7321
 30
0.0000
 11
4.1016
 21
-0.4333
 31
0.0000
  0
LINE
  8
1
 10
4.1016
 20
-0.4333
 30
0.0000
 11
3.8729
 21
-0.2047
 31
0.0000
  0
LINE
  8
1
 10
3.8729
 20
-0.2047
 30
0.0000
 11
3.6292
 21
0.0391
 31
0.0000
  0
LINE
  8
1
 10
3.6292
 20
0.0391
 30
0.0000
 11
3.5137
 21
0.0869
 31
0.0000
  0
LINE
  8
1
 10
3.5137
 20
0.0869
 30
0.0000
 11
3.5137
 21
0.3013
 31
0.0000
  0
LINE
  8
1
 10
3.5137
 20
0.3013
 30
0.0000
 11
3.5039
 21
0.3250
 31
0.0000
  0
LINE
  8
1
 10
3.5039
 20
0.3250
 30
0.0000
 11
3.5137
 21
0.3487
 31
0.0000
  0
LINE
  8
1
 10
3.5137
 20
0.3487
 30
0.0000
 11
3.5137
 21
0.9513
 31
0.0000
  0
LINE
  8
1
 10
3.5137
 20
0.9513
 30
0.0000
 11
3.5039
 21
0.9750
 31
0.0000
  0
LINE
  8
1
 10
3.5039
 20
0.9750
 30
0.0000
 11
3.5137
 21
0.9987
 31
0.0000
  0
LINE
  8
1
 10
3.5137
 20
0.9987
 30
0.0000
 11
3.5137
 21
1.6013
 31
0.0000
  0
LINE
  8
1
 10
3.5137
 20
1.6013
 30
0.0000
 11
3.5039
 21
1.6250
 31
0.0000
  0
LINE
  8
1
 10
3.5039
 20
1.6250
 30
0.0000
 11
3.5137
 21
1.6487
 31
0.0000
  0
LINE
  8
1
 10
3.5137
 20
1.6487
 30
0.0000
 11
3.5137
 21
2.2513
 31
0.0000
  0
LINE
  8
1
 10
3.5137
 20
2.2513
 30
0.0000
 11
3.5039
 21
2.2750
 31
0.0000
  0
LINE
  8
1
 10
3.5039
 20
2.2750
 30
0.0000
 11
3.5137
 21
2.2987
 31
0.0000
  0
LINE
  8
1
 10
3.5137
 20
2.2987
 30
0.0000
 11
3.5137
 21
2.9013
 31
0.0000
  0
LINE
  8
1
 10
3.5137
 20
2.9013
 30
0.0000
 11
3.5039
 21
2.9250
 31
0.0000
  0
LINE
  8
1
 10
3.5039
 20
2.9250
 30
0.0000
 11
3.5137
 21
2.9487
 31
0.0000
  0
LINE
  8
1
 10
3.5137
 20
2.9487
 30
0.0000
 11
3.5137
 21
3.5513
 31
0.0000
  0
LINE
  8
1
 10
3.5137
 20
3.5513
 30
0.0000
 11
3.5039
 21
3.5750
 31
0.0000
  0
LINE
  8
1
 10
3.5039
 20
3.5750
 30
0.0000
 11
3.5137
 21
3.5987
 31
0.0000
  0
LINE
  8
1
 10
3.5137
 20
3.5987
 30
0.0000
 11
3.5137
 21
4.2013
 31
0.0000
  0
LINE
  8
1
 10
3.5137
 20
4.2013
 30
0.0000
 11
3.5039
 21
4.2250
 31
0.0000
  0
LINE
  8
1
 10
3.5039
 20
4.2250
 30
0.0000
 11
3.5137
 21
4.2487
 31
0.0000
  0
LINE
  8
1
 10
3.5137
 20
4.2487
 30
0.0000
 11
3.5137
 21
4.8513
 31
0.0000
  0
LINE
  8
1
 10
3.5137
 20
4.8513
 30
0.0000
 11
3.4171
 21
5.0847
 31
0.0000
  0
LINE
  8
1
 10
3.4171
 20
5.0847
 30
0.0000
 11
3.3680
 21
5.1338
 31
0.0000
  0
LINE
  8
1
 10
3.3680
 20
5.1338
 30
0.0000
 11
12.1212
 21
5.1338
 31
0.0000
  0
LINE
  8
1
 10
12.1212
 20
5.1338
 30
0.0000
 11
12.1212
 21
-4.2391
 31
0.0000
  0
LINE
  8
1
 10
12.1212
 20
-4.2391
 30
0.0000
 11
12.0192
 21
-4.2391
 31
0.0000
  0
LINE
  8
1
 10
12.0192
 20
-4.2391
 30
0.0000
 11
11.7625
 21
-4.3455
 31
0.0000
  0
LINE
  8
1
 10
11.7625
 20
-4.3455
 30
0.0000
 11
11.7268
 21
-4.3812
 31
0.0000
  0
LINE
  8
1
 10
11.7268
 20
-4.3812
 30
0.0000
 11
11.6910
 21
-4.3455
 31
0.0000
  0
LINE
  8
1
 10
11.6910
 20
-4.3455
 30
0.0000
 11
11.4343
 21
-4.2391
 31
0.0000
  0
LINE
  8
1
 10
11.4343
 20
-4.2391
 30
0.0000
 11
11.1564
 21
-4.2391
 31
0.0000
  0
LINE
  8
1
 10
11.1564
 20
-4.2391
 30
0.0000
 11
10.9784
 21
-4.3129
 31
0.0000
  0
LINE
  8
1
 10
10.9784
 20
-4.3129
 30
0.0000
 11
10.8422
 21
-4.2565
 31
0.0000
  0
LINE
  8
1
 10
10.8422
 20
-4.2565
 30
0.0000
 11
10.8003
 21
-4.2391
 31
0.0000
  0
LINE
  8
1
 10
10.8003
 20
-4.2391
 30
0.0000
 11
10.8003
 21
-4.2391
 31
0.0000
  0
LINE
  8
1
 10
10.8003
 20
-4.2391
 30
0.0000
 11
10.8003
 21
-4.2391
 31
0.0000
  0
LINE
  8
1
 10
10.8003
 20
-4.2391
 30
0.0000
 11
10.6598
 21
-4.2391
 31
0.0000
  0
LINE
  8
1
 10
10.6598
 20
-4.2391
 30
0.0000
 11
10.2936
 21
-4.2391
 31
0.0000
  0
LINE
  8
1
 10
10.2936
 20
-4.2391
 30
0.0000
 11
10.1728
 21
-4.2892
 31
0.0000
  0
LINE
  8
1
 10
10.1728
 20
-4.2892
 30
0.0000
 11
10.0981
 21
-4.2582
 31
0.0000
  0
LINE
  8
1
 10
10.0981
 20
-4.2582
 30
0.0000
 11
10.0519
 21
-4.2391
 31
0.0000
  0
LINE
  8
1
 10
10.0519
 20
-4.2391
 30
0.0000
 11
10.0519
 21
-4.2391
 31
0.0000
  0
LINE
  8
1
 10
10.0519
 20
-4.2391
 30
0.0000
 11
10.0519
 21
-4.2391
 31
0.0000
  0
LINE
  8
1
 10
10.0519
 20
-4.2391
 30
0.0000
 11
9.9144
 21
-4.2391
 31
0.0000
  0
LINE
  8
1
 10
9.9144
 20
-4.2391
 30
0.0000
 11
9.5452
 21
-4.2391
 31
0.0000
  0
LINE
  8
1
 10
9.5452
 20
-4.2391
 30
0.0000
 11
9.2885
 21
-4.3455
 31
0.0000
  0
LINE
  8
1
 10
9.2885
 20
-4.3455
 30
0.0000
 11
8.9776
 21
-4.6563
 31
0.0000
  0
LINE
  8
1
 10
8.9776
 20
-4.6563
 30
0.0000
 11
8.8712
 21
-4.9131
 31
0.0000
  0
LINE
  8
1
 10
8.8712
 20
-4.9131
 30
0.0000
 11
8.8712
 21
-5.1910
 31
0.0000
  0
LINE
  8
1
 10
8.8712
 20
-5.1910
 30
0.0000
 11
8.9322
 21
-5.3380
 31
0.0000
  0
LINE
  8
1
 10
8.9322
 20
-5.3380
 30
0.0000
 11
8.8887
 21
-5.4429
 31
0.0000
  0
LINE
  8
1
 10
8.8887
 20
-5.4429
 30
0.0000
 11
8.8769
 21
-5.4429
 31
0.0000
  0
LINE
  8
1
 10
8.8769
 20
-5.4429
 30
0.0000
 11
8.8133
 21
-5.4693
 31
0.0000
  0
LINE
  8
1
 10
8.8133
 20
-5.4693
 30
0.0000
 11
8.7496
 21
-5.4429
 31
0.0000
  0
LINE
  8
1
 10
8.7496
 20
-5.4429
 30
0.0000
 11
8.5208
 21
-5.4429
 31
0.0000
  0
LINE
  8
1
 10
8.5208
 20
-5.4429
 30
0.0000
 11
8.5208
 21
-5.4429
 31
0.0000
  0
LINE
  8
1
 10
8.5208
 20
-5.4429
 30
0.0000
 11
8.3803
 21
-5.4429
 31
0.0000
  0
LINE
  8
1
 10
8.3803
 20
-5.4429
 30
0.0000
 11
8.2429
 21
-5.4429
 31
0.0000
  0
LINE
  8
1
 10
8.2429
 20
-5.4429
 30
0.0000
 11
8.2429
 21
-5.4429
 31
0.0000
  0
LINE
  8
1
 10
8.2429
 20
-5.4429
 30
0.0000
 11
8.2429
 21
-5.4429
 31
0.0000
  0
LINE
  8
1
 10
8.2429
 20
-5.4429
 30
0.0000
 11
8.1220
 21
-5.4930
 31
0.0000
  0
LINE
  8
1
 10
8.1220
 20
-5.4930
 30
0.0000
 11
8.0626
 21
-5.4684
 31
0.0000
  0
LINE
  8
1
 10
8.0626
 20
-5.4684
 30
0.0000
 11
7.9147
 21
-5.3205
 31
0.0000
  0
LINE
  8
1
 10
7.9147
 20
-5.3205
 30
0.0000
 11
7.6580
 21
-5.2141
 31
0.0000
  0
LINE
  8
1
 10
7.6580
 20
-5.2141
 30
0.0000
 11
7.3801
 21
-5.2141
 31
0.0000
  0
LINE
  8
1
 10
7.3801
 20
-5.2141
 30
0.0000
 11
7.1234
 21
-5.3205
 31
0.0000
  0
LINE
  8
1
 10
7.1234
 20
-5.3205
 30
0.0000
 11
7.1153
 21
-5.3285
 31
0.0000
  0
LINE
  8
1
 10
7.1153
 20
-5.3285
 30
0.0000
 11
6.9956
 21
-5.3285
 31
0.0000
  0
LINE
  8
1
 10
6.9956
 20
-5.3285
 30
0.0000
 11
6.7388
 21
-5.4349
 31
0.0000
  0
LINE
  8
1
 10
6.7388
 20
-5.4349
 30
0.0000
 11
6.6244
 21
-5.5493
 31
0.0000
  0
LINE
  8
1
 10
6.6244
 20
-5.5493
 30
0.0000
 11
6.6244
 21
-5.5493
 31
0.0000
  0
LINE
  8
1
 10
6.6244
 20
-5.5493
 30
0.0000
 11
6.5313
 21
-5.6424
 31
0.0000
  0
LINE
  8
1
 10
6.5313
 20
-5.6424
 30
0.0000
 11
6.4793
 21
-5.5169
 31
0.0000
  0
LINE
  8
1
 10
6.4793
 20
-5.5169
 30
0.0000
 11
6.2828
 21
-5.3205
 31
0.0000
  0
LINE
  8
1
 10
6.2828
 20
-5.3205
 30
0.0000
 11
6.0261
 21
-5.2141
 31
0.0000
  0
LINE
  8
1
 10
6.0261
 20
-5.2141
 30
0.0000
 11
5.6338
 21
-5.2141
 31
0.0000
  0
LINE
  8
1
 10
5.6338
 20
-5.2141
 30
0.0000
 11
5.3771
 21
-5.3205
 31
0.0000
  0
LINE
  8
1
 10
5.3771
 20
-5.3205
 30
0.0000
 11
5.2546
 21
-5.4429
 31
0.0000
  0
LINE
  8
1
 10
5.2546
 20
-5.4429
 30
0.0000
 11
4.9998
 21
-5.4429
 31
0.0000
  0
LINE
  8
1
 10
4.9998
 20
-5.4429
 30
0.0000
 11
4.9361
 21
-5.4693
 31
0.0000
  0
LINE
  8
1
 10
4.9361
 20
-5.4693
 30
0.0000
 11
4.8724
 21
-5.4429
 31
0.0000
  0
LINE
  8
1
 10
4.8724
 20
-5.4429
 30
0.0000
 11
4.5946
 21
-5.4429
 31
0.0000
  0
LINE
  8
1
 10
4.5946
 20
-5.4429
 30
0.0000
 11
4.5047
 21
-5.4801
 31
0.0000
  0
LINE
  8
1
 10
4.5047
 20
-5.4801
 30
0.0000
 11
4.4149
 21
-5.4429
 31
0.0000
  0
LINE
  8
1
 10
4.4149
 20
-5.4429
 30
0.0000
 11
4.1370
 21
-5.4429
 31
0.0000
  0
LINE
  8
1
 10
4.1370
 20
-5.4429
 30
0.0000
 11
4.1305
 21
-5.4456
 31
0.0000
  0
LINE
  8
1
 10
4.1305
 20
-5.4456
 30
0.0000
 11
4.1240
 21
-5.4429
 31
0.0000
  0
LINE
  8
1
 10
4.1240
 20
-5.4429
 30
0.0000
 11
3.7808
 21
-5.4429
 31
0.0000
  0
LINE
  8
1
 10
3.7808
 20
-5.4429
 30
0.0000
 11
3.7808
 21
-5.4429
 31
0.0000
  0
LINE
  8
1
 10
3.7808
 20
-5.4429
 30
0.0000
 11
3.6434
 21
-5.4429
 31
0.0000
  0
LINE
  8
1
 10
3.6434
 20
-5.4429
 30
0.0000
 11
3.5030
 21
-5.4429
 31
0.0000
  0
LINE
  8
1
 10
3.5030
 20
-5.4429
 30
0.0000
 11
3.5029
 21
-5.4429
 31
0.0000
  0
LINE
  8
1
 10
3.5029
 20
-5.4429
 30
0.0000
 11
3.5029
 21
-5.4429
 31
0.0000
  0
LINE
  8
1
 10
3.5029
 20
-5.4429
 30
0.0000
 11
3.4393
 21
-5.4693
 31
0.0000
  0
LINE
  8
1
 10
3.4393
 20
-5.4693
 30
0.0000
 11
3.3756
 21
-5.4429
 31
0.0000
  0
LINE
  8
1
 10
3.3756
 20
-5.4429
 30
0.0000
 11
3.0977
 21
-5.4429
 31
0.0000
  0
LINE
  8
1
 10
3.0977
 20
-5.4429
 30
0.0000
 11
3.0079
 21
-5.4801
 31
0.0000
  0
LINE
  8
1
 10
3.0079
 20
-5.4801
 30
0.0000
 11
2.9180
 21
-5.4429
 31
0.0000
  0
LINE
  8
1
 10
2.9180
 20
-5.4429
 30
0.0000
 11
2.6401
 21
-5.4429
 31
0.0000
  0
LINE
  8
1
 10
2.6401
 20
-5.4429
 30
0.0000
 11
2.5765
 21
-5.4693
 31
0.0000
  0
LINE
  8
1
 10
2.5765
 20
-5.4693
 30
0.0000
 11
2.5128
 21
-5.4429
 31
0.0000
  0
LINE
  8
1
 10
2.5128
 20
-5.4429
 30
0.0000
 11
1.8917
 21
-5.4429
 31
0.0000
  0
LINE
  8
1
 10
1.8917
 20
-5.4429
 30
0.0000
 11
1.8853
 21
-5.4456
 31
0.0000
  0
LINE
  8
1
 10
1.8853
 20
-5.4456
 30
0.0000
 11
1.8788
 21
-5.4429
 31
0.0000
  0
LINE
  8
1
 10
1.8788
 20
-5.4429
 30
0.0000
 11
1.6009
 21
-5.4429
 31
0.0000
  0
LINE
  8
1
 10
1.6009
 20
-5.4429
 30
0.0000
 11
1.5110
 21
-5.4801
 31
0.0000
  0
LINE
  8
1
 10
1.5110
 20
-5.4801
 30
0.0000
 11
1.4212
 21
-5.4429
 31
0.0000
  0
LINE
  8
1
 10
1.4212
 20
-5.4429
 30
0.0000
 11
1.1503
 21
-5.4429
 31
0.0000
  0
LINE
  8
1
 10
1.1503
 20
-5.4429
 30
0.0000
 11
1.2332
 21
-5.3600
 31
0.0000
  0
LINE
  8
1
 10
1.2332
 20
-5.3600
 30
0.0000
 11
1.3782
 21
-5.3600
 31
0.0000
  0
LINE
  8
1
 10
3.0678
 20
-5.3340
 30
0.0000
 11
5.3635
 21
-5.3340
 31
0.0000
  0
LINE
  8
1
 10
6.2964
 20
-5.3340
 30
0.0000
 11
6.9823
 21
-5.3340
 31
0.0000
  0
LINE
  8
1
 10
7.9283
 20
-5.3340
 30
0.0000
 11
8.9305
 21
-5.3340
 31
0.0000
  0
LINE
  8
1
 10
3.4611
 20
-4.9784
 30
0.0000
 11
8.8712
 21
-4.9784
 31
0.0000
  0
LINE
  8
1
 10
3.5137
 20
-4.6228
 30
0.0000
 11
9.0111
 21
-4.6228
 31
0.0000
  0
LINE
  8
1
 10
3.5137
 20
-4.2672
 30
0.0000
 11
9.4774
 21
-4.2672
 31
0.0000
  0
LINE
  8
1
 10
10.1197
 20
-4.2672
 30
0.0000
 11
10.2258
 21
-4.2672
 31
0.0000
  0
LINE
  8
1
 10
10.8681
 20
-4.2672
 30
0.0000
 11
11.0886
 21
-4.2672
 31
0.0000
  0
LINE
  8
1
 10
11.5021
 20
-4.2672
 30
0.0000
 11
11.9514
 21
-4.2672
 31
0.0000
  0
LINE
  8
1
 10
3.5137
 20
-3.9116
 30
0.0000
 11
12.1212
 21
-3.9116
 31
0.0000
  0
LINE
  8
1
 10
3.5118
 20
-3.5560
 30
0.0000
 11
12.1212
 21
-3.5560
 31
0.0000
  0
LINE
  8
1
 10
3.5137
 20
-3.2004
 30
0.0000
 11
12.1212
 21
-3.2004
 31
0.0000
  0
LINE
  8
1
 10
3.5137
 20
-2.8448
 30
0.0000
 11
12.1212
 21
-2.8448
 31
0.0000
  0
LINE
  8
1
 10
3.7790
 20
-2.4892
 30
0.0000
 11
12.1212
 21
-2.4892
 31
0.0000
  0
LINE
  8
1
 10
4.1153
 20
-2.1336
 30
0.0000
 11
12.1212
 21
-2.1336
 31
0.0000
  0
LINE
  8
1
 10
4.2253
 20
-1.7780
 30
0.0000
 11
12.1212
 21
-1.7780
 31
0.0000
  0
LINE
  8
1
 10
4.2253
 20
-1.4224
 30
0.0000
 11
12.1212
 21
-1.4224
 31
0.0000
  0
LINE
  8
1
 10
4.2253
 20
-1.0668
 30
0.0000
 11
12.1212
 21
-1.0668
 31
0.0000
  0
LINE
  8
1
 10
4.2167
 20
-0.7112
 30
0.0000
 11
12.1212
 21
-0.7112
 31
0.0000
  0
LINE
  8
1
 10
4.0238
 20
-0.3556
 30
0.0000
 11
12.1212
 21
-0.3556
 31
0.0000
  0
LINE
  8
1
 10
3.6682
 20
0.0000
 30
0.0000
 11
12.1212
 21
0.0000
 31
0.0000
  0
LINE
  8
1
 10
3.5137
 20
0.3556
 30
0.0000
 11
12.1212
 21
0.3556
 31
0.0000
  0
LINE
  8
1
 10
3.5137
 20
0.7112
 30
0.0000
 11
12.1212
 21
0.7112
 31
0.0000
  0
LINE
  8
1
 10
3.5137
 20
1.0668
 30
0.0000
 11
12.1212
 21
1.0668
 31
0.0000
  0
LINE
  8
1
 10
3.5137
 20
1.4224
 30
0.0000
 11
12.1212
 21
1.4224
 31
0.0000
  0
LINE
  8
1
 10
3.5137
 20
1.7780
 30
0.0000
 11
12.1212
 21
1.7780
 31
0.0000
  0
LINE
  8
1
 10
3.5137
 20
2.1336
 30
0.0000
 11
12.1212
 21
2.1336
 31
0.0000
  0
LINE
  8
1
 10
3.5137
 20
2.4892
 30
0.0000
 11
12.1212
 21
2.4892
 31
0.0000
  0
LINE
  8
1
 10
3.5137
 20
2.8448
 30
0.0000
 11
12.1212
 21
2.8448
 31
0.0000
  0
LINE
  8
1
 10
3.5137
 20
3.2004
 30
0.0000
 11
12.1212
 21
3.2004
 31
0.0000
  0
LINE
  8
1
 10
3.5118
 20
3.5560
 30
0.0000
 11
12.1212
 21
3.5560
 31
0.0000
  0
LINE
  8
1
 10
3.5137
 20
3.9116
 30
0.0000
 11
12.1212
 21
3.9116
 31
0.0000
  0
LINE
  8
1
 10
3.5137
 20
4.2672
 30
0.0000
 11
12.1212
 21
4.2672
 31
0.0000
  0
LINE
  8
1
 10
3.5137
 20
4.6228
 30
0.0000
 11
12.1212
 21
4.6228
 31
0.0000
  0
LINE
  8
1
 10
3.4611
 20
4.9784
 30
0.0000
 11
12.1212
 21
4.9784
 31
0.0000
  0
ENDSEC
  0
EOF
